<svg width="137" height="12" viewBox="0 0 137 12" fill="none" xmlns="http://www.w3.org/2000/svg">
<path d="M12.375 0.265625L15.1172 7.71875L18.0859 0.265625H21.0938L16.7812 11H13.5625L10.7578 3.78125L7.96094 11H4.74219L0.421875 0.265625H3.4375L6.34375 7.5625L9.14844 0.265625H12.375Z" fill="#0D062D"/>
<path d="M36.7578 5.64062C36.7578 6.5625 36.5885 7.3776 36.25 8.08594C35.9115 8.78906 35.4271 9.3776 34.7969 9.85156C34.1667 10.3255 33.401 10.6849 32.5 10.9297C31.6042 11.1693 30.5964 11.2891 29.4766 11.2891C28.3568 11.2891 27.3438 11.1693 26.4375 10.9297C25.5365 10.6849 24.7682 10.3255 24.1328 9.85156C23.4974 9.3776 23.0078 8.78906 22.6641 8.08594C22.3203 7.3776 22.1484 6.5625 22.1484 5.64062C22.1484 4.71875 22.3203 3.90625 22.6641 3.20312C23.0078 2.49479 23.4974 1.90365 24.1328 1.42969C24.7682 0.955729 25.5365 0.598958 26.4375 0.359375C27.3438 0.114583 28.3568 -0.0078125 29.4766 -0.0078125C30.5964 -0.0078125 31.6042 0.114583 32.5 0.359375C33.401 0.598958 34.1667 0.955729 34.7969 1.42969C35.4271 1.90365 35.9115 2.49479 36.25 3.20312C36.5885 3.90625 36.7578 4.71875 36.7578 5.64062ZM33.8281 5.64062C33.8281 5.23958 33.763 4.84115 33.6328 4.44531C33.5078 4.04427 33.2812 3.6849 32.9531 3.36719C32.6302 3.04948 32.1875 2.79167 31.625 2.59375C31.0625 2.39583 30.3464 2.29688 29.4766 2.29688C28.8932 2.29688 28.3802 2.34375 27.9375 2.4375C27.4948 2.52604 27.112 2.65104 26.7891 2.8125C26.4661 2.97396 26.1953 3.16406 25.9766 3.38281C25.7578 3.59635 25.5833 3.82812 25.4531 4.07812C25.3229 4.32292 25.2292 4.58073 25.1719 4.85156C25.1198 5.11719 25.0938 5.38021 25.0938 5.64062C25.0938 5.90625 25.1198 6.17448 25.1719 6.44531C25.2292 6.71615 25.3229 6.97656 25.4531 7.22656C25.5833 7.47135 25.7578 7.70052 25.9766 7.91406C26.1953 8.1276 26.4661 8.3151 26.7891 8.47656C27.112 8.63281 27.4948 8.75781 27.9375 8.85156C28.3802 8.9401 28.8932 8.98438 29.4766 8.98438C30.3464 8.98438 31.0625 8.88542 31.625 8.6875C32.1875 8.48958 32.6302 8.23177 32.9531 7.91406C33.2812 7.59635 33.5078 7.23958 33.6328 6.84375C33.763 6.44271 33.8281 6.04167 33.8281 5.64062Z" fill="#0D062D"/>
<path d="M49.2734 2.69531C49.1953 2.66927 49.0807 2.63542 48.9297 2.59375C48.7839 2.54688 48.612 2.5026 48.4141 2.46094C48.2161 2.41406 47.9974 2.375 47.7578 2.34375C47.5234 2.3125 47.2812 2.29688 47.0312 2.29688C46.5104 2.29688 46.0234 2.36198 45.5703 2.49219C45.1224 2.61719 44.7031 2.78646 44.3125 3C43.9219 3.20833 43.5573 3.44792 43.2188 3.71875C42.8854 3.98438 42.5781 4.25781 42.2969 4.53906V11H39.3984V0.265625H42.2969V2.00781C42.6458 1.7474 43.0026 1.4974 43.3672 1.25781C43.737 1.01302 44.1198 0.796875 44.5156 0.609375C44.9167 0.421875 45.3385 0.273438 45.7812 0.164062C46.224 0.0494792 46.6927 -0.0078125 47.1875 -0.0078125C47.375 -0.0078125 47.5651 0.00260417 47.7578 0.0234375C47.9557 0.0390625 48.1458 0.0598958 48.3281 0.0859375C48.5156 0.111979 48.6901 0.140625 48.8516 0.171875C49.013 0.203125 49.1536 0.234375 49.2734 0.265625V2.69531Z" fill="#0D062D"/>
<path d="M64.2656 5.625C64.2656 6.3125 64.1901 6.92448 64.0391 7.46094C63.888 7.99219 63.6745 8.45573 63.3984 8.85156C63.1276 9.2474 62.7995 9.58333 62.4141 9.85938C62.0339 10.1354 61.6094 10.3568 61.1406 10.5234C60.6719 10.6901 60.1667 10.8125 59.625 10.8906C59.0833 10.9635 58.5182 11 57.9297 11H51.1172V0.265625H57.9141C58.5026 0.265625 59.0677 0.304688 59.6094 0.382812C60.151 0.455729 60.6562 0.575521 61.125 0.742188C61.599 0.908854 62.0286 1.13021 62.4141 1.40625C62.7995 1.67708 63.1276 2.01302 63.3984 2.41406C63.6745 2.8099 63.888 3.27344 64.0391 3.80469C64.1901 4.33594 64.2656 4.94271 64.2656 5.625ZM61.3438 5.625C61.3438 5.10938 61.276 4.66146 61.1406 4.28125C61.0104 3.90104 60.7969 3.58854 60.5 3.34375C60.2083 3.09375 59.8255 2.90885 59.3516 2.78906C58.8776 2.66406 58.2995 2.60156 57.6172 2.60156H54.0156V8.66406H57.6172C58.2995 8.66406 58.8776 8.60417 59.3516 8.48438C59.8255 8.35938 60.2083 8.17188 60.5 7.92188C60.7969 7.66667 61.0104 7.34896 61.1406 6.96875C61.276 6.58854 61.3438 6.14062 61.3438 5.625Z" fill="#0D062D"/>
<path d="M76.8047 3.28906C76.6016 3.1901 76.3333 3.07812 76 2.95312C75.6667 2.82812 75.2891 2.71094 74.8672 2.60156C74.4453 2.48698 73.987 2.39323 73.4922 2.32031C72.9974 2.24219 72.4896 2.20312 71.9688 2.20312C71.5521 2.20312 71.1953 2.21615 70.8984 2.24219C70.6068 2.26823 70.3594 2.30208 70.1562 2.34375C69.9583 2.38542 69.7995 2.4349 69.6797 2.49219C69.5651 2.54427 69.4766 2.59896 69.4141 2.65625C69.3516 2.71354 69.3099 2.77083 69.2891 2.82812C69.2734 2.88542 69.2656 2.9375 69.2656 2.98438C69.2656 3.14062 69.3438 3.27865 69.5 3.39844C69.6562 3.51302 69.8698 3.61719 70.1406 3.71094C70.4115 3.79948 70.7266 3.88542 71.0859 3.96875C71.4453 4.04688 71.8255 4.13021 72.2266 4.21875C72.6328 4.30208 73.0495 4.39583 73.4766 4.5C73.9089 4.59896 74.3255 4.71615 74.7266 4.85156C75.1328 4.98698 75.5156 5.14583 75.875 5.32812C76.2344 5.50521 76.5495 5.71354 76.8203 5.95312C77.0911 6.19271 77.3047 6.46875 77.4609 6.78125C77.6172 7.09375 77.6953 7.45052 77.6953 7.85156C77.6953 8.36719 77.6042 8.8099 77.4219 9.17969C77.2396 9.54948 76.9948 9.86198 76.6875 10.1172C76.3854 10.3724 76.0339 10.5781 75.6328 10.7344C75.2318 10.8854 74.8099 11.0026 74.3672 11.0859C73.9297 11.1693 73.4844 11.224 73.0312 11.25C72.5833 11.276 72.1562 11.2891 71.75 11.2891C70.6875 11.2891 69.7031 11.2005 68.7969 11.0234C67.8958 10.8516 67.099 10.6354 66.4062 10.375V7.8125C67.1198 8.20833 67.9323 8.51823 68.8438 8.74219C69.7604 8.96615 70.7396 9.07812 71.7812 9.07812C72.3958 9.07812 72.8958 9.04688 73.2812 8.98438C73.6719 8.91667 73.9766 8.83333 74.1953 8.73438C74.4141 8.63021 74.5625 8.51823 74.6406 8.39844C74.7188 8.27865 74.7578 8.16406 74.7578 8.05469C74.7578 7.88281 74.6797 7.73438 74.5234 7.60938C74.3672 7.47917 74.1536 7.36719 73.8828 7.27344C73.612 7.17448 73.2969 7.08594 72.9375 7.00781C72.5781 6.92448 72.1953 6.84375 71.7891 6.76562C71.388 6.68229 70.974 6.59375 70.5469 6.5C70.1198 6.40625 69.7031 6.29688 69.2969 6.17188C68.8958 6.04167 68.5156 5.89323 68.1562 5.72656C67.7969 5.55469 67.4818 5.35417 67.2109 5.125C66.9401 4.89062 66.7266 4.6224 66.5703 4.32031C66.4141 4.01302 66.3359 3.65885 66.3359 3.25781C66.3359 2.78385 66.4193 2.375 66.5859 2.03125C66.7526 1.6875 66.9766 1.39583 67.2578 1.15625C67.5443 0.911458 67.8724 0.713542 68.2422 0.5625C68.6172 0.411458 69.0104 0.294271 69.4219 0.210938C69.8333 0.127604 70.25 0.0703125 70.6719 0.0390625C71.0938 0.0078125 71.4948 -0.0078125 71.875 -0.0078125C72.2917 -0.0078125 72.7188 0.0130208 73.1562 0.0546875C73.599 0.0963542 74.0339 0.15625 74.4609 0.234375C74.888 0.307292 75.2995 0.393229 75.6953 0.492188C76.0964 0.591146 76.4661 0.695312 76.8047 0.804688V3.28906Z" fill="#0D062D"/>
<path d="M90.7188 11V6.52344H83.3438V11H80.4453V0.265625H83.3438V4.17188H90.7188V0.265625H93.6172V11H90.7188Z" fill="#0D062D"/>
<path d="M108.945 10.4688C108.065 10.7604 107.185 10.9688 106.305 11.0938C105.43 11.224 104.534 11.2891 103.617 11.2891C102.445 11.2891 101.401 11.1641 100.484 10.9141C99.5729 10.6589 98.8047 10.2917 98.1797 9.8125C97.5547 9.33333 97.0781 8.7474 96.75 8.05469C96.4219 7.36198 96.2578 6.57812 96.2578 5.70312C96.2578 4.89062 96.4219 4.13802 96.75 3.44531C97.0833 2.7474 97.5521 2.14323 98.1562 1.63281C98.7656 1.11719 99.5 0.716146 100.359 0.429688C101.219 0.138021 102.177 -0.0078125 103.234 -0.0078125C104.208 -0.0078125 105.099 0.125 105.906 0.390625C106.719 0.651042 107.414 1.03906 107.992 1.55469C108.576 2.07031 109.026 2.70573 109.344 3.46094C109.667 4.21615 109.828 5.08594 109.828 6.07031V6.78906H99.25C99.3438 7.1276 99.4974 7.4375 99.7109 7.71875C99.9297 8 100.224 8.23958 100.594 8.4375C100.964 8.63542 101.417 8.78906 101.953 8.89844C102.495 9.00781 103.141 9.0625 103.891 9.0625C104.422 9.0625 104.943 9.03125 105.453 8.96875C105.964 8.90104 106.44 8.8151 106.883 8.71094C107.326 8.60156 107.724 8.48177 108.078 8.35156C108.438 8.22135 108.727 8.09115 108.945 7.96094V10.4688ZM106.945 4.66406C106.919 4.39844 106.839 4.125 106.703 3.84375C106.573 3.55729 106.365 3.29948 106.078 3.07031C105.792 2.84115 105.417 2.65365 104.953 2.50781C104.49 2.35677 103.911 2.28125 103.219 2.28125C102.568 2.28125 102.005 2.36198 101.531 2.52344C101.057 2.6849 100.659 2.88542 100.336 3.125C100.018 3.36458 99.7708 3.6224 99.5938 3.89844C99.4167 4.17448 99.3021 4.42969 99.25 4.66406H106.945Z" fill="#0D062D"/>
<path d="M115.359 6.40625C115.359 6.85417 115.401 7.22135 115.484 7.50781C115.568 7.78906 115.703 8.01302 115.891 8.17969C116.078 8.34635 116.32 8.46094 116.617 8.52344C116.919 8.58594 117.289 8.61719 117.727 8.61719H123.227V11H117.133C116.289 11 115.57 10.9323 114.977 10.7969C114.388 10.6562 113.906 10.4427 113.531 10.1562C113.156 9.86458 112.883 9.4974 112.711 9.05469C112.544 8.61198 112.461 8.08594 112.461 7.47656V0.265625H115.359V6.40625Z" fill="#0D062D"/>
<path d="M130.625 2.55469C130.286 2.55469 129.982 2.56771 129.711 2.59375C129.445 2.61979 129.219 2.68229 129.031 2.78125C128.844 2.88021 128.701 3.02865 128.602 3.22656C128.503 3.41927 128.453 3.6849 128.453 4.02344V4.42188H136.547V6.71094H128.453V11H125.555V3.78125C125.555 3.22917 125.635 2.73438 125.797 2.29688C125.964 1.85938 126.24 1.49219 126.625 1.19531C127.01 0.893229 127.521 0.664062 128.156 0.507812C128.792 0.346354 129.583 0.265625 130.531 0.265625H136.93V2.55469H130.625Z" fill="#0D062D"/>
</svg>
