<svg width="32" height="32" viewBox="0 0 32 32" fill="none" xmlns="http://www.w3.org/2000/svg">
<path d="M8.42681 22.1796C7.90575 22.8148 6.875 22.4464 6.875 21.6248C6.875 17.9039 8.38131 15.2382 11.0006 13.5573C12.6325 12.5099 14.5383 11.9294 16.5 11.6861V8.06232C16.5 7.29494 17.4179 6.899 17.9757 7.42619L25.8507 14.8637C25.9373 14.9455 26.0063 15.0441 26.0534 15.1535C26.1006 15.2628 26.1249 15.3807 26.1249 15.4998C26.1249 15.6189 26.1006 15.7368 26.0534 15.8462C26.0063 15.9555 25.9373 16.0542 25.8507 16.1359L17.9757 23.5734C17.4179 24.1006 16.5 23.7047 16.5 22.9373V19.0191C13.0831 19.2225 10.0661 20.1789 8.42681 22.1796ZM17.3562 17.2332C17.4727 17.2307 17.5885 17.2515 17.6968 17.2943C17.8052 17.3372 17.9038 17.4012 17.9871 17.4827C18.0704 17.5642 18.1365 17.6615 18.1816 17.7689C18.2268 17.8763 18.25 17.9917 18.25 18.1082V20.9073L23.9756 15.4998L18.25 10.0923V12.4771C18.25 12.6975 18.1669 12.9097 18.0172 13.0714C17.8676 13.2331 17.6625 13.3324 17.4428 13.3495C15.4631 13.5035 13.5184 14.0206 11.9456 15.0299C10.3549 16.0506 9.28562 17.4922 8.84812 19.4588C11.0697 17.9459 14.0885 17.3045 17.3562 17.2332Z" fill="#515151"/>
</svg>
