<svg width="32" height="32" viewBox="0 0 32 32" fill="none" xmlns="http://www.w3.org/2000/svg">
<path d="M24.502 22.5H11.9985C10.8945 22.5 9.4975 21.8885 8.7475 21.075L5.6705 17.7385C4.777 16.7695 4.7765 15.231 5.6705 14.2615L8.7475 10.925C9.5 10.11 10.8905 9.5 11.9985 9.5H24.502C25.882 9.5 27 10.62 27 12.0005V20C26.9993 20.6625 26.736 21.2977 26.2677 21.7663C25.7995 22.235 25.1645 22.4988 24.502 22.5ZM24.502 20.5C24.774 20.5 25 20.274 25 19.9995V12C25.0001 11.8677 24.9478 11.7407 24.8544 11.647C24.761 11.5533 24.6343 11.5004 24.502 11.5H11.9985C11.4495 11.5 10.5915 11.876 10.2175 12.281L7.1405 15.6175C6.953 15.821 6.953 16.1795 7.1405 16.3825L10.2175 19.719C10.589 20.1215 11.453 20.5 11.9985 20.5H24.502ZM12.5 17.5C12.1022 17.5 11.7206 17.342 11.4393 17.0607C11.158 16.7794 11 16.3978 11 16C11 15.6022 11.158 15.2206 11.4393 14.9393C11.7206 14.658 12.1022 14.5 12.5 14.5C12.8978 14.5 13.2794 14.658 13.5607 14.9393C13.842 15.2206 14 15.6022 14 16C14 16.3978 13.842 16.7794 13.5607 17.0607C13.2794 17.342 12.8978 17.5 12.5 17.5Z" fill="#515151"/>
</svg>
