<svg width="32" height="32" viewBox="0 0 32 32" fill="none" xmlns="http://www.w3.org/2000/svg">
<path d="M11.5217 3.04248C12.316 2.71081 12.946 2.66304 13.4358 2.76123C13.9226 2.85891 14.2489 3.09703 14.4475 3.30127C14.6447 3.49848 14.8793 3.82298 14.9729 4.30127C15.0665 4.77981 15.0144 5.38896 14.6819 6.14893L14.6829 6.1499C14.2072 7.24263 13.9367 8.41234 13.885 9.6001L13.8762 10.1099V10.1108C13.899 15.3453 18.2552 19.7986 23.5696 20.0103H23.5706C24.3414 20.0428 25.0961 19.9877 25.8284 19.856L26.1321 19.8091C26.8188 19.7255 27.3429 19.8149 27.7395 19.9897C28.0793 20.1396 28.3136 20.3476 28.4719 20.5435L28.6067 20.7329C28.7512 20.9699 28.9064 21.3424 28.8879 21.8384C28.8694 22.3341 28.6774 22.9295 28.1711 23.6167L28.1721 23.6177C26.8805 25.3817 25.1893 26.815 23.2375 27.8003C21.2862 28.7854 19.1295 29.2937 16.9436 29.2856V29.2866C16.7396 29.2866 16.5275 29.287 16.3079 29.2749V29.2739C9.50295 28.9669 3.8006 23.5721 3.16235 16.9204L3.13599 16.603C2.71824 10.7715 6.09069 5.32282 11.5217 3.04346V3.04248ZM12.6194 5.09033C12.5585 5.10977 12.4985 5.13265 12.4407 5.16064L12.429 5.16553C7.91121 7.0728 5.10753 11.6022 5.4397 16.4321L5.4895 16.9585C6.14215 22.3597 10.8411 26.7135 16.4045 26.9585H16.4055C18.3138 27.0543 20.2162 26.6748 21.9417 25.854C23.6671 25.0331 25.1616 23.7965 26.2913 22.2554C26.3247 22.2097 26.3536 22.1659 26.3801 22.1255C26.3359 22.1315 26.292 22.1405 26.2483 22.1499L26.2395 22.1509C25.3368 22.3144 24.3973 22.3723 23.468 22.3384H23.467C16.9308 22.0782 11.5839 16.5993 11.5481 10.1284V10.1265C11.5481 8.4182 11.8839 6.77229 12.5667 5.22119L12.5676 5.21729C12.5884 5.17212 12.6046 5.12953 12.6194 5.09033Z" fill="#515151" stroke="#515151" stroke-width="0.5"/>
</svg>
