<svg width="32" height="32" viewBox="0 0 32 32" fill="none" xmlns="http://www.w3.org/2000/svg">
<mask id="path-1-outside-1_54_2" maskUnits="userSpaceOnUse" x="1.86963" y="1.86963" width="28" height="28" fill="black">
<rect fill="white" x="1.86963" y="1.86963" width="28" height="28"/>
<path d="M8.78391 16C8.78391 15.4407 8.30177 15.0657 7.84963 15.0657H3.80391C3.24463 15.0657 2.86963 15.5489 2.86963 16.0011C2.86963 16.4511 3.24463 16.9353 3.80391 16.9353H7.84963C8.3307 16.9353 8.78391 16.4811 8.78391 16.0011V16ZM22.8036 10.1339C22.9295 10.1392 23.0547 10.113 23.1679 10.0576C23.2811 10.0022 23.3787 9.91945 23.4518 9.81677L26.1261 7.14249C26.2124 7.07243 26.2833 6.98522 26.3342 6.88637C26.3851 6.78751 26.4149 6.67917 26.4218 6.5682C26.4265 6.43991 26.4041 6.31206 26.3561 6.19299C26.3081 6.07392 26.2356 5.96629 26.1432 5.87713C26.069 5.78474 25.9751 5.71013 25.8683 5.65878C25.7615 5.60742 25.6446 5.58062 25.5261 5.58034C25.4028 5.58279 25.2813 5.60973 25.1685 5.65957C25.0558 5.70942 24.954 5.78119 24.8693 5.8707L22.1757 8.61784C22.0896 8.68784 22.019 8.77511 21.9686 8.87402C21.9183 8.97293 21.8892 9.08129 21.8832 9.19213C21.8786 9.32246 21.9018 9.45228 21.9513 9.57293C22.0008 9.69357 22.0755 9.80227 22.1703 9.89177C22.3417 10.0513 22.5684 10.1378 22.8025 10.1328L22.8036 10.1339ZM16 8.78499C16.48 8.78499 16.9343 8.3307 16.9343 7.8507V3.80391C16.9343 3.24463 16.4521 2.86963 16 2.86963C15.5489 2.86963 15.0657 3.24463 15.0657 3.80391V7.8507C15.0657 8.40999 15.5489 8.78499 16 8.78499ZM5.87499 7.14141L8.56427 9.88963C8.71963 10.045 8.95106 10.1328 9.19641 10.1328C9.32053 10.138 9.44402 10.1126 9.55608 10.059C9.66814 10.0054 9.76537 9.92519 9.83927 9.82534C9.92115 9.7556 9.98805 9.66999 10.0359 9.57369C10.0838 9.47738 10.1117 9.37236 10.1178 9.26499C10.1225 9.13465 10.0994 9.00481 10.0498 8.88415C10.0003 8.76349 9.92561 8.6548 9.8307 8.56534L7.14141 5.87606C7.06699 5.78339 6.97271 5.70861 6.86552 5.65724C6.75834 5.60588 6.64099 5.57923 6.52213 5.57927C6.2793 5.58427 6.04811 5.68429 5.8782 5.85784C5.78468 5.93644 5.70968 6.03472 5.65856 6.14566C5.60744 6.25661 5.58147 6.37748 5.58249 6.49963C5.58249 6.75141 5.68749 6.98606 5.87499 7.14141ZM9.22106 21.9421C9.09855 21.9445 8.97773 21.971 8.86555 22.0203C8.75338 22.0696 8.65207 22.1406 8.56749 22.2293L5.8782 24.9186C5.79186 24.9886 5.721 25.0758 5.6701 25.1747C5.6192 25.2735 5.58936 25.3819 5.58249 25.4928C5.57763 25.6234 5.60074 25.7534 5.65026 25.8743C5.69979 25.9951 5.77458 26.104 5.86963 26.1936C6.02499 26.3478 6.25534 26.4357 6.50177 26.4357C6.62755 26.4408 6.75263 26.4147 6.86578 26.3595C6.97892 26.3043 7.07659 26.2219 7.14999 26.1196L9.82427 23.5032C9.91111 23.4336 9.98232 23.3465 10.0333 23.2475C10.0842 23.1486 10.1138 23.04 10.12 22.9289C10.1247 22.8006 10.1023 22.6728 10.0543 22.5537C10.0063 22.4346 9.93378 22.327 9.84141 22.2378C9.7662 22.1456 9.67143 22.0712 9.56396 22.0201C9.45649 21.969 9.339 21.9423 9.21999 21.9421H9.22106ZM28.1961 15.0657H24.1503C23.5911 15.0657 23.2161 15.5489 23.2161 16.0011C23.2161 16.5603 23.6993 16.9353 24.1503 16.9353H28.1961C28.7564 16.9353 29.1314 16.4521 29.1314 16.0011C29.1314 15.4407 28.6471 15.0657 28.1961 15.0657ZM23.4411 22.2378C23.3668 22.1457 23.2728 22.0712 23.166 22.0201C23.0592 21.9689 22.9423 21.9423 22.8239 21.9421C22.5807 21.9468 22.3491 22.0469 22.1789 22.2207C22.0921 22.2903 22.0209 22.3774 21.9699 22.4764C21.919 22.5753 21.8894 22.6839 21.8832 22.795C21.8785 22.9253 21.9017 23.0552 21.9512 23.1758C22.0007 23.2965 22.0754 23.4052 22.1703 23.4946L24.8682 26.1925C25.0386 26.3537 25.2658 26.4411 25.5003 26.4357C25.7414 26.4357 25.9696 26.3511 26.125 26.2021C26.2118 26.1325 26.283 26.0454 26.334 25.9465C26.3849 25.8475 26.4145 25.739 26.4207 25.6278C26.4255 25.4973 26.4023 25.3673 26.3528 25.2465C26.3033 25.1256 26.2285 25.0167 26.1336 24.9271L23.4411 22.2378ZM20.4646 11.5353C19.8807 10.9448 19.1854 10.4759 18.4191 10.156C17.6527 9.83599 16.8305 9.67123 16 9.67123C15.1695 9.67123 14.3473 9.83599 13.5809 10.156C12.8145 10.4759 12.1193 10.9448 11.5353 11.5353C10.9448 12.1193 10.4759 12.8145 10.156 13.5809C9.83599 14.3473 9.67123 15.1695 9.67123 16C9.67123 16.8305 9.83599 17.6527 10.156 18.4191C10.4759 19.1854 10.9448 19.8807 11.5353 20.4646C12.1193 21.0552 12.8145 21.524 13.5809 21.844C14.3473 22.164 15.1695 22.3287 16 22.3287C16.8305 22.3287 17.6527 22.164 18.4191 21.844C19.1854 21.524 19.8807 21.0552 20.4646 20.4646C21.0552 19.8807 21.524 19.1854 21.844 18.4191C22.164 17.6527 22.3287 16.8305 22.3287 16C22.3287 15.1695 22.164 14.3473 21.844 13.5809C21.524 12.8145 21.0552 12.1193 20.4646 11.5353ZM16 11.4828C17.1977 11.4845 18.3458 11.9611 19.1926 12.8081C20.0394 13.6551 20.5157 14.8034 20.5171 16.0011C20.5154 17.1986 20.039 18.3465 19.1922 19.1933C18.3454 20.04 17.1975 20.5165 16 20.5182C14.8025 20.5165 13.6545 20.04 12.8078 19.1933C11.961 18.3465 11.4845 17.1986 11.4828 16.0011C11.4843 14.8034 11.9606 13.6551 12.8074 12.8081C13.6542 11.9611 14.8023 11.4845 16 11.4828ZM16 23.2161C15.4407 23.2161 15.0657 23.6993 15.0657 24.1514V28.1971C15.0657 28.7564 15.5489 29.1314 16 29.1314C16.4511 29.1314 16.9343 28.7564 16.9343 28.1971V24.1514C16.9343 23.5911 16.4521 23.2161 16 23.2161Z"/>
</mask>
<path d="M8.78391 16C8.78391 15.4407 8.30177 15.0657 7.84963 15.0657H3.80391C3.24463 15.0657 2.86963 15.5489 2.86963 16.0011C2.86963 16.4511 3.24463 16.9353 3.80391 16.9353H7.84963C8.3307 16.9353 8.78391 16.4811 8.78391 16.0011V16ZM22.8036 10.1339C22.9295 10.1392 23.0547 10.113 23.1679 10.0576C23.2811 10.0022 23.3787 9.91945 23.4518 9.81677L26.1261 7.14249C26.2124 7.07243 26.2833 6.98522 26.3342 6.88637C26.3851 6.78751 26.4149 6.67917 26.4218 6.5682C26.4265 6.43991 26.4041 6.31206 26.3561 6.19299C26.3081 6.07392 26.2356 5.96629 26.1432 5.87713C26.069 5.78474 25.9751 5.71013 25.8683 5.65878C25.7615 5.60742 25.6446 5.58062 25.5261 5.58034C25.4028 5.58279 25.2813 5.60973 25.1685 5.65957C25.0558 5.70942 24.954 5.78119 24.8693 5.8707L22.1757 8.61784C22.0896 8.68784 22.019 8.77511 21.9686 8.87402C21.9183 8.97293 21.8892 9.08129 21.8832 9.19213C21.8786 9.32246 21.9018 9.45228 21.9513 9.57293C22.0008 9.69357 22.0755 9.80227 22.1703 9.89177C22.3417 10.0513 22.5684 10.1378 22.8025 10.1328L22.8036 10.1339ZM16 8.78499C16.48 8.78499 16.9343 8.3307 16.9343 7.8507V3.80391C16.9343 3.24463 16.4521 2.86963 16 2.86963C15.5489 2.86963 15.0657 3.24463 15.0657 3.80391V7.8507C15.0657 8.40999 15.5489 8.78499 16 8.78499ZM5.87499 7.14141L8.56427 9.88963C8.71963 10.045 8.95106 10.1328 9.19641 10.1328C9.32053 10.138 9.44402 10.1126 9.55608 10.059C9.66814 10.0054 9.76537 9.92519 9.83927 9.82534C9.92115 9.7556 9.98805 9.66999 10.0359 9.57369C10.0838 9.47738 10.1117 9.37236 10.1178 9.26499C10.1225 9.13465 10.0994 9.00481 10.0498 8.88415C10.0003 8.76349 9.92561 8.6548 9.8307 8.56534L7.14141 5.87606C7.06699 5.78339 6.97271 5.70861 6.86552 5.65724C6.75834 5.60588 6.64099 5.57923 6.52213 5.57927C6.2793 5.58427 6.04811 5.68429 5.8782 5.85784C5.78468 5.93644 5.70968 6.03472 5.65856 6.14566C5.60744 6.25661 5.58147 6.37748 5.58249 6.49963C5.58249 6.75141 5.68749 6.98606 5.87499 7.14141ZM9.22106 21.9421C9.09855 21.9445 8.97773 21.971 8.86555 22.0203C8.75338 22.0696 8.65207 22.1406 8.56749 22.2293L5.8782 24.9186C5.79186 24.9886 5.721 25.0758 5.6701 25.1747C5.6192 25.2735 5.58936 25.3819 5.58249 25.4928C5.57763 25.6234 5.60074 25.7534 5.65026 25.8743C5.69979 25.9951 5.77458 26.104 5.86963 26.1936C6.02499 26.3478 6.25534 26.4357 6.50177 26.4357C6.62755 26.4408 6.75263 26.4147 6.86578 26.3595C6.97892 26.3043 7.07659 26.2219 7.14999 26.1196L9.82427 23.5032C9.91111 23.4336 9.98232 23.3465 10.0333 23.2475C10.0842 23.1486 10.1138 23.04 10.12 22.9289C10.1247 22.8006 10.1023 22.6728 10.0543 22.5537C10.0063 22.4346 9.93378 22.327 9.84141 22.2378C9.7662 22.1456 9.67143 22.0712 9.56396 22.0201C9.45649 21.969 9.339 21.9423 9.21999 21.9421H9.22106ZM28.1961 15.0657H24.1503C23.5911 15.0657 23.2161 15.5489 23.2161 16.0011C23.2161 16.5603 23.6993 16.9353 24.1503 16.9353H28.1961C28.7564 16.9353 29.1314 16.4521 29.1314 16.0011C29.1314 15.4407 28.6471 15.0657 28.1961 15.0657ZM23.4411 22.2378C23.3668 22.1457 23.2728 22.0712 23.166 22.0201C23.0592 21.9689 22.9423 21.9423 22.8239 21.9421C22.5807 21.9468 22.3491 22.0469 22.1789 22.2207C22.0921 22.2903 22.0209 22.3774 21.9699 22.4764C21.919 22.5753 21.8894 22.6839 21.8832 22.795C21.8785 22.9253 21.9017 23.0552 21.9512 23.1758C22.0007 23.2965 22.0754 23.4052 22.1703 23.4946L24.8682 26.1925C25.0386 26.3537 25.2658 26.4411 25.5003 26.4357C25.7414 26.4357 25.9696 26.3511 26.125 26.2021C26.2118 26.1325 26.283 26.0454 26.334 25.9465C26.3849 25.8475 26.4145 25.739 26.4207 25.6278C26.4255 25.4973 26.4023 25.3673 26.3528 25.2465C26.3033 25.1256 26.2285 25.0167 26.1336 24.9271L23.4411 22.2378ZM20.4646 11.5353C19.8807 10.9448 19.1854 10.4759 18.4191 10.156C17.6527 9.83599 16.8305 9.67123 16 9.67123C15.1695 9.67123 14.3473 9.83599 13.5809 10.156C12.8145 10.4759 12.1193 10.9448 11.5353 11.5353C10.9448 12.1193 10.4759 12.8145 10.156 13.5809C9.83599 14.3473 9.67123 15.1695 9.67123 16C9.67123 16.8305 9.83599 17.6527 10.156 18.4191C10.4759 19.1854 10.9448 19.8807 11.5353 20.4646C12.1193 21.0552 12.8145 21.524 13.5809 21.844C14.3473 22.164 15.1695 22.3287 16 22.3287C16.8305 22.3287 17.6527 22.164 18.4191 21.844C19.1854 21.524 19.8807 21.0552 20.4646 20.4646C21.0552 19.8807 21.524 19.1854 21.844 18.4191C22.164 17.6527 22.3287 16.8305 22.3287 16C22.3287 15.1695 22.164 14.3473 21.844 13.5809C21.524 12.8145 21.0552 12.1193 20.4646 11.5353ZM16 11.4828C17.1977 11.4845 18.3458 11.9611 19.1926 12.8081C20.0394 13.6551 20.5157 14.8034 20.5171 16.0011C20.5154 17.1986 20.039 18.3465 19.1922 19.1933C18.3454 20.04 17.1975 20.5165 16 20.5182C14.8025 20.5165 13.6545 20.04 12.8078 19.1933C11.961 18.3465 11.4845 17.1986 11.4828 16.0011C11.4843 14.8034 11.9606 13.6551 12.8074 12.8081C13.6542 11.9611 14.8023 11.4845 16 11.4828ZM16 23.2161C15.4407 23.2161 15.0657 23.6993 15.0657 24.1514V28.1971C15.0657 28.7564 15.5489 29.1314 16 29.1314C16.4511 29.1314 16.9343 28.7564 16.9343 28.1971V24.1514C16.9343 23.5911 16.4521 23.2161 16 23.2161Z" fill="white"/>
<path d="M8.78391 16C8.78391 15.4407 8.30177 15.0657 7.84963 15.0657H3.80391C3.24463 15.0657 2.86963 15.5489 2.86963 16.0011C2.86963 16.4511 3.24463 16.9353 3.80391 16.9353H7.84963C8.3307 16.9353 8.78391 16.4811 8.78391 16.0011V16ZM22.8036 10.1339C22.9295 10.1392 23.0547 10.113 23.1679 10.0576C23.2811 10.0022 23.3787 9.91945 23.4518 9.81677L26.1261 7.14249C26.2124 7.07243 26.2833 6.98522 26.3342 6.88637C26.3851 6.78751 26.4149 6.67917 26.4218 6.5682C26.4265 6.43991 26.4041 6.31206 26.3561 6.19299C26.3081 6.07392 26.2356 5.96629 26.1432 5.87713C26.069 5.78474 25.9751 5.71013 25.8683 5.65878C25.7615 5.60742 25.6446 5.58062 25.5261 5.58034C25.4028 5.58279 25.2813 5.60973 25.1685 5.65957C25.0558 5.70942 24.954 5.78119 24.8693 5.8707L22.1757 8.61784C22.0896 8.68784 22.019 8.77511 21.9686 8.87402C21.9183 8.97293 21.8892 9.08129 21.8832 9.19213C21.8786 9.32246 21.9018 9.45228 21.9513 9.57293C22.0008 9.69357 22.0755 9.80227 22.1703 9.89177C22.3417 10.0513 22.5684 10.1378 22.8025 10.1328L22.8036 10.1339ZM16 8.78499C16.48 8.78499 16.9343 8.3307 16.9343 7.8507V3.80391C16.9343 3.24463 16.4521 2.86963 16 2.86963C15.5489 2.86963 15.0657 3.24463 15.0657 3.80391V7.8507C15.0657 8.40999 15.5489 8.78499 16 8.78499ZM5.87499 7.14141L8.56427 9.88963C8.71963 10.045 8.95106 10.1328 9.19641 10.1328C9.32053 10.138 9.44402 10.1126 9.55608 10.059C9.66814 10.0054 9.76537 9.92519 9.83927 9.82534C9.92115 9.7556 9.98805 9.66999 10.0359 9.57369C10.0838 9.47738 10.1117 9.37236 10.1178 9.26499C10.1225 9.13465 10.0994 9.00481 10.0498 8.88415C10.0003 8.76349 9.92561 8.6548 9.8307 8.56534L7.14141 5.87606C7.06699 5.78339 6.97271 5.70861 6.86552 5.65724C6.75834 5.60588 6.64099 5.57923 6.52213 5.57927C6.2793 5.58427 6.04811 5.68429 5.8782 5.85784C5.78468 5.93644 5.70968 6.03472 5.65856 6.14566C5.60744 6.25661 5.58147 6.37748 5.58249 6.49963C5.58249 6.75141 5.68749 6.98606 5.87499 7.14141ZM9.22106 21.9421C9.09855 21.9445 8.97773 21.971 8.86555 22.0203C8.75338 22.0696 8.65207 22.1406 8.56749 22.2293L5.8782 24.9186C5.79186 24.9886 5.721 25.0758 5.6701 25.1747C5.6192 25.2735 5.58936 25.3819 5.58249 25.4928C5.57763 25.6234 5.60074 25.7534 5.65026 25.8743C5.69979 25.9951 5.77458 26.104 5.86963 26.1936C6.02499 26.3478 6.25534 26.4357 6.50177 26.4357C6.62755 26.4408 6.75263 26.4147 6.86578 26.3595C6.97892 26.3043 7.07659 26.2219 7.14999 26.1196L9.82427 23.5032C9.91111 23.4336 9.98232 23.3465 10.0333 23.2475C10.0842 23.1486 10.1138 23.04 10.12 22.9289C10.1247 22.8006 10.1023 22.6728 10.0543 22.5537C10.0063 22.4346 9.93378 22.327 9.84141 22.2378C9.7662 22.1456 9.67143 22.0712 9.56396 22.0201C9.45649 21.969 9.339 21.9423 9.21999 21.9421H9.22106ZM28.1961 15.0657H24.1503C23.5911 15.0657 23.2161 15.5489 23.2161 16.0011C23.2161 16.5603 23.6993 16.9353 24.1503 16.9353H28.1961C28.7564 16.9353 29.1314 16.4521 29.1314 16.0011C29.1314 15.4407 28.6471 15.0657 28.1961 15.0657ZM23.4411 22.2378C23.3668 22.1457 23.2728 22.0712 23.166 22.0201C23.0592 21.9689 22.9423 21.9423 22.8239 21.9421C22.5807 21.9468 22.3491 22.0469 22.1789 22.2207C22.0921 22.2903 22.0209 22.3774 21.9699 22.4764C21.919 22.5753 21.8894 22.6839 21.8832 22.795C21.8785 22.9253 21.9017 23.0552 21.9512 23.1758C22.0007 23.2965 22.0754 23.4052 22.1703 23.4946L24.8682 26.1925C25.0386 26.3537 25.2658 26.4411 25.5003 26.4357C25.7414 26.4357 25.9696 26.3511 26.125 26.2021C26.2118 26.1325 26.283 26.0454 26.334 25.9465C26.3849 25.8475 26.4145 25.739 26.4207 25.6278C26.4255 25.4973 26.4023 25.3673 26.3528 25.2465C26.3033 25.1256 26.2285 25.0167 26.1336 24.9271L23.4411 22.2378ZM20.4646 11.5353C19.8807 10.9448 19.1854 10.4759 18.4191 10.156C17.6527 9.83599 16.8305 9.67123 16 9.67123C15.1695 9.67123 14.3473 9.83599 13.5809 10.156C12.8145 10.4759 12.1193 10.9448 11.5353 11.5353C10.9448 12.1193 10.4759 12.8145 10.156 13.5809C9.83599 14.3473 9.67123 15.1695 9.67123 16C9.67123 16.8305 9.83599 17.6527 10.156 18.4191C10.4759 19.1854 10.9448 19.8807 11.5353 20.4646C12.1193 21.0552 12.8145 21.524 13.5809 21.844C14.3473 22.164 15.1695 22.3287 16 22.3287C16.8305 22.3287 17.6527 22.164 18.4191 21.844C19.1854 21.524 19.8807 21.0552 20.4646 20.4646C21.0552 19.8807 21.524 19.1854 21.844 18.4191C22.164 17.6527 22.3287 16.8305 22.3287 16C22.3287 15.1695 22.164 14.3473 21.844 13.5809C21.524 12.8145 21.0552 12.1193 20.4646 11.5353ZM16 11.4828C17.1977 11.4845 18.3458 11.9611 19.1926 12.8081C20.0394 13.6551 20.5157 14.8034 20.5171 16.0011C20.5154 17.1986 20.039 18.3465 19.1922 19.1933C18.3454 20.04 17.1975 20.5165 16 20.5182C14.8025 20.5165 13.6545 20.04 12.8078 19.1933C11.961 18.3465 11.4845 17.1986 11.4828 16.0011C11.4843 14.8034 11.9606 13.6551 12.8074 12.8081C13.6542 11.9611 14.8023 11.4845 16 11.4828ZM16 23.2161C15.4407 23.2161 15.0657 23.6993 15.0657 24.1514V28.1971C15.0657 28.7564 15.5489 29.1314 16 29.1314C16.4511 29.1314 16.9343 28.7564 16.9343 28.1971V24.1514C16.9343 23.5911 16.4521 23.2161 16 23.2161Z" stroke="white" stroke-width="0.4" mask="url(#path-1-outside-1_54_2)"/>
</svg>
