<svg width="32" height="32" viewBox="0 0 32 32" fill="none" xmlns="http://www.w3.org/2000/svg">
<g clip-path="url(#clip0_41_105)">
<path d="M15.6655 15.5417L21.8531 12.0276L27.6596 8.7272L15.6669 1.91992L9.85891 5.22174L3.67273 8.7272L15.6655 15.5417Z" fill="#00FFB0"/>
<path d="M28.9193 8.76386C28.9182 8.66076 28.9045 8.55817 28.8785 8.4584C28.8669 8.41476 28.8451 8.37695 28.8291 8.33767C28.8043 8.27513 28.7854 8.21113 28.752 8.1544C28.7302 8.11367 28.6967 8.08167 28.6691 8.04531C28.6313 7.9944 28.5978 7.93913 28.5527 7.89404C28.5207 7.86204 28.48 7.83876 28.4436 7.80967C28.3956 7.7704 28.3505 7.72676 28.2953 7.69331C28.2938 7.69331 28.2894 7.69331 28.288 7.6904C28.2851 7.6904 28.2836 7.68749 28.2807 7.68604L16.288 0.880218C16.0984 0.772471 15.8842 0.71582 15.6662 0.71582C15.4481 0.71582 15.2339 0.772471 15.0443 0.880218L9.23925 4.17767H9.23634L3.05161 7.68604C3.0487 7.68604 3.04725 7.68895 3.04434 7.6904L3.03707 7.69331C2.98325 7.72531 2.94107 7.76749 2.89307 7.80531C2.8567 7.8344 2.81307 7.85913 2.78107 7.89258C2.73452 7.94058 2.69961 7.9944 2.66034 8.04822C2.63561 8.08313 2.60216 8.11513 2.58179 8.15295C2.54543 8.21549 2.52361 8.28386 2.49888 8.35222C2.48434 8.38713 2.46543 8.42058 2.45525 8.45695C2.43041 8.55295 2.41722 8.6516 2.41597 8.75076C2.41597 8.76386 2.41016 8.77404 2.41016 8.78713V23.0329C2.41016 23.4897 2.65597 23.91 3.05016 24.1355L15.0443 30.9413C15.1098 30.9777 15.1782 30.9995 15.2465 31.0228C15.2785 31.0344 15.3105 31.0533 15.344 31.062C15.5554 31.1193 15.7783 31.1193 15.9898 31.062C16.0232 31.0548 16.0538 31.0359 16.0872 31.0228C16.1556 30.9995 16.224 30.9777 16.288 30.9413L28.2822 24.1355C28.4768 24.0247 28.6385 23.8643 28.7509 23.6706C28.8634 23.4769 28.9224 23.2569 28.9222 23.0329V8.78858L28.9193 8.76386ZM15.6669 3.43731L25.0967 8.78858L21.8516 10.6315L12.4218 5.27876L15.6654 3.43731H15.6669ZM9.85888 6.73476L19.2887 12.0875L15.6669 14.1442L6.23561 8.78858L9.85743 6.73476H9.85888ZM4.93525 10.9602L14.4043 16.3391V27.6671L4.93525 22.294V10.9602ZM26.3971 22.294L16.928 27.6671V16.3391L26.3971 10.9602V22.294Z" fill="#000A64"/>
</g>
<defs>
<clipPath id="clip0_41_105">
<rect width="32" height="32" fill="white"/>
</clipPath>
</defs>
</svg>
