<svg width="24" height="24" viewBox="0 0 24 24" fill="none" xmlns="http://www.w3.org/2000/svg">
<g clip-path="url(#clip0_38_13)">
<path d="M0 5.68444C0 7.19197 0.598863 8.63775 1.66484 9.70373C2.73083 10.7697 4.17661 11.3686 5.68414 11.3686C7.19166 11.3686 8.63745 10.7697 9.70343 9.70373C10.7694 8.63775 11.3683 7.19197 11.3683 5.68444C11.3683 4.17691 10.7694 2.73113 9.70343 1.66515C8.63745 0.599164 7.19166 0.000300899 5.68414 0.000300899C4.17661 0.000300899 2.73083 0.599164 1.66484 1.66515C0.598863 2.73113 0 4.17691 0 5.68444ZM0 18.3159C0 19.8234 0.598863 21.2692 1.66484 22.3352C2.73083 23.4011 4.17661 24 5.68414 24C7.19166 24 8.63745 23.4011 9.70343 22.3352C10.7694 21.2692 11.3683 19.8234 11.3683 18.3159C11.3683 16.8083 10.7694 15.3626 9.70343 14.2966C8.63745 13.2306 7.19166 12.6317 5.68414 12.6317C4.17661 12.6317 2.73083 13.2306 1.66484 14.2966C0.598863 15.3626 0 16.8083 0 18.3159ZM12.6314 18.3159C12.6314 19.8234 13.2303 21.2692 14.2963 22.3352C15.3622 23.4011 16.808 24 18.3156 24C19.8231 24 21.2689 23.4011 22.3348 22.3352C23.4008 21.2692 23.9997 19.8234 23.9997 18.3159C23.9997 16.8083 23.4008 15.3626 22.3348 14.2966C21.2689 13.2306 19.8231 12.6317 18.3156 12.6317C16.808 12.6317 15.3622 13.2306 14.2963 14.2966C13.2303 15.3626 12.6314 16.8083 12.6314 18.3159ZM18.9787 10.9328L19.3299 10.1294C19.9439 8.7063 21.0687 7.5648 22.4827 6.9299L23.5614 6.4499C24.1462 6.19096 24.1462 5.34087 23.5614 5.08192L22.5433 4.62845C21.0925 3.97739 19.9471 2.79405 19.3437 1.32281L18.985 0.455032C18.9319 0.320818 18.8397 0.205668 18.7203 0.124527C18.6009 0.0433858 18.4599 0 18.3156 0C18.1712 0 18.0302 0.0433858 17.9108 0.124527C17.7914 0.205668 17.6992 0.320818 17.6461 0.455032L17.2874 1.32407C16.684 2.79532 15.5386 3.97866 14.0878 4.62972L13.0697 5.08318C12.4849 5.34213 12.4849 6.19222 13.0697 6.45117L14.1484 6.93116C15.5624 7.56606 16.6872 8.70757 17.3012 10.1307L17.6524 10.9341C17.7075 11.0644 17.7998 11.1756 17.9177 11.2538C18.0357 11.332 18.174 11.3737 18.3156 11.3737C18.4571 11.3737 18.5954 11.332 18.7134 11.2538C18.8313 11.1756 18.9236 11.0644 18.9787 10.9341V10.9328Z" fill="#0C8128"/>
</g>
<defs>
<clipPath id="clip0_38_13">
<rect width="24" height="24" fill="white"/>
</clipPath>
</defs>
</svg>
