<svg width="48" height="48" viewBox="0 0 48 48" fill="none" xmlns="http://www.w3.org/2000/svg">
<path d="M31.716 2.00028C32.9534 2.02338 34.179 2.24026 35.3455 2.6426C37.257 3.37424 38.8911 4.66022 40.0265 6.32623C41.1618 7.99224 41.7434 9.95772 41.6925 11.9563C41.6898 13.2688 41.4191 14.5678 40.8959 15.7775C40.3728 16.9873 39.6077 18.0837 38.6452 19.003L20.1479 37.3469C19.5907 37.8913 18.9319 38.3273 18.207 38.6316C17.4749 38.9184 16.6825 39.0286 15.8972 38.9528C15.1126 39.0068 14.3252 38.8973 13.5875 38.6316C12.9063 38.3935 12.3259 37.9415 11.9377 37.3469C11.3945 36.7917 10.9487 36.1535 10.6178 35.4578C10.3262 34.7308 10.2003 33.9508 10.2491 33.1718C10.2342 31.6267 10.8241 30.134 11.8989 28.9967L28.7463 11.9941C28.9527 11.8054 29.1953 11.6581 29.4601 11.5607C29.725 11.4633 30.0071 11.4177 30.2901 11.4265C30.5731 11.4352 30.8516 11.4982 31.1096 11.6118C31.3675 11.7254 31.6 11.8874 31.7936 12.0885C32.1189 12.4108 32.3239 12.8298 32.3759 13.2787C32.0459 13.921 32.0459 14.2422 31.716 14.8845L14.5191 31.566C14.1094 32.0075 13.8753 32.5771 13.8592 33.1718C13.9066 33.6573 14.1263 34.1114 14.4806 34.4562C14.8348 34.801 15.3014 35.0149 15.8002 35.061C16.056 35.0596 16.3081 35.0009 16.537 34.8895C16.7658 34.7782 16.9653 34.6171 17.12 34.4187L35.6173 16.0936C36.1922 15.5596 36.6383 14.9082 36.9236 14.1863C37.2089 13.4644 37.3262 12.6898 37.2671 11.9185C37.2258 10.3837 36.6433 8.90953 35.6173 7.7434C35.174 7.14784 34.5897 6.66513 33.9139 6.33625C33.2382 6.00737 32.4908 5.84201 31.7354 5.85422C30.9194 5.8275 30.108 5.98401 29.3641 6.31162C28.6203 6.63923 27.9639 7.12915 27.4459 7.7434L8.94862 26.0685C7.99679 27.0035 7.21569 28.0896 6.63889 29.2801C5.64955 31.6482 5.64955 34.2988 6.63889 36.6668C7.21569 37.8574 7.99679 38.9435 8.94862 39.8785C9.83319 40.8008 10.9029 41.5366 12.0914 42.0403C13.28 42.5439 14.5621 42.8048 15.8584 42.8067C17.1626 42.8436 18.4595 42.6042 19.6592 42.1051C20.859 41.606 21.933 40.8592 22.807 39.9162L41.6925 21.9312C42.0224 21.27 42.3524 21.27 43.0123 21.27C43.2695 21.275 43.5221 21.3373 43.7509 21.4519C43.9796 21.5664 44.1784 21.7304 44.3321 21.9312C44.5076 22.0561 44.6556 22.2139 44.7675 22.3953C44.8794 22.5768 44.9529 22.7781 44.9836 22.9876C45.0144 23.1971 45.0018 23.4104 44.9465 23.6151C44.8913 23.8197 44.7946 24.0116 44.6621 24.1793C44.5723 24.3043 44.4606 24.413 44.3321 24.5005L25.7767 42.8067C24.369 44.0521 22.819 45.1361 21.1572 46.0372C17.7545 47.3209 13.9817 47.3209 10.579 46.0372C8.77364 45.3754 7.18002 44.2609 5.95955 42.8067C4.66555 41.5203 3.65503 39.9903 2.9899 38.3104C2.34257 36.6702 2.00715 34.929 2.00001 33.1718C1.99746 31.3094 2.33256 29.4612 2.9899 27.7121C3.65006 26.0298 4.6612 24.4988 5.95955 23.2158L24.4568 4.89073C25.41 3.96527 26.5425 3.23321 27.7886 2.73704C29.0347 2.24086 30.3697 1.99043 31.716 2.00028Z" fill="#515151"/>
</svg>
