<svg width="16" height="16" viewBox="0 0 16 16" fill="none" xmlns="http://www.w3.org/2000/svg">
<path d="M13.6164 5.74704H12.492V4.62273C12.492 2.13897 10.4786 0.125488 7.9948 0.125488C5.51105 0.125488 3.49758 2.13899 3.49758 4.62273V5.74704H2.3732C1.7523 5.74704 1.24896 6.25037 1.24896 6.87127V14.7415C1.24896 15.3624 1.7523 15.8657 2.3732 15.8657H13.6164C14.2373 15.8657 14.7406 15.3624 14.7406 14.7415V6.87127C14.7406 6.25039 14.2373 5.74704 13.6164 5.74704ZM4.62189 4.62273C4.62189 2.75991 6.132 1.2498 7.99482 1.2498C9.85764 1.2498 11.3678 2.75991 11.3678 4.62273V5.74704H4.62189V4.62273ZM13.6164 14.1839C13.6164 14.4919 13.3667 14.7415 13.0587 14.7415H2.93089C2.62292 14.7415 2.37327 14.4919 2.37327 14.1839V7.42897C2.37327 7.121 2.62292 6.87135 2.93089 6.87135H13.0587C13.3667 6.87135 13.6164 7.121 13.6164 7.42897V14.1839Z" fill="#515151"/>
<path d="M7.99484 7.99561C6.75296 7.99561 5.74622 9.00235 5.74622 10.2442C5.74622 11.292 6.46281 12.1724 7.43264 12.422V13.0595C7.43264 13.3675 7.6823 13.6172 7.99027 13.6172H7.99933C8.3073 13.6172 8.55695 13.3675 8.55695 13.0595V12.422C9.52682 12.1724 10.2435 11.292 10.2435 10.2442C10.2435 9.00235 9.23671 7.99561 7.99484 7.99561ZM7.99484 11.3685C7.3739 11.3685 6.87053 10.8652 6.87053 10.2442C6.87053 9.62329 7.3739 9.11991 7.99484 9.11991C8.61577 9.11991 9.11915 9.62329 9.11915 10.2442C9.11915 10.8652 8.61577 11.3685 7.99484 11.3685Z" fill="#515151"/>
</svg>
