<svg width="16" height="16" viewBox="0 0 16 16" fill="none" xmlns="http://www.w3.org/2000/svg">
<path d="M9.14285 15V12.6083L13.3524 8.33056C13.4667 8.21389 13.5936 8.12963 13.7333 8.07778C13.873 8.02593 14.0127 8 14.1524 8C14.3048 8 14.4508 8.0293 14.5905 8.08789C14.7302 8.14648 14.8571 8.23385 14.9714 8.35L15.6762 9.06944C15.7778 9.18611 15.8573 9.31574 15.9147 9.45833C15.9721 9.60093 16.0005 9.74352 16 9.88611C15.9995 10.0287 15.9741 10.1747 15.9238 10.324C15.8735 10.4733 15.791 10.6061 15.6762 10.7222L11.4857 15H9.14285ZM14.1524 10.6444L14.8571 9.88611L14.1524 9.16667L13.4286 9.90556L14.1524 10.6444ZM1.52381 13.4444C1.10476 13.4444 0.746158 13.2923 0.448 12.9879C0.149841 12.6835 0.000507936 12.3172 0 11.8889V2.55556C0 2.12778 0.149333 1.7617 0.448 1.45733C0.746666 1.15296 1.10527 1.00052 1.52381 1H6.09524L7.61904 2.55556H13.7143C14.1333 2.55556 14.4922 2.708 14.7909 3.01289C15.0895 3.31778 15.2386 3.68385 15.2381 4.11111V6.67778C15.0603 6.6 14.8762 6.54167 14.6857 6.50278C14.4952 6.46389 14.3048 6.44444 14.1143 6.44444C13.7587 6.44444 13.4255 6.50926 13.1147 6.63889C12.8038 6.76852 12.5211 6.96296 12.2667 7.22222L7.61904 11.9667V13.4444H1.52381Z" fill="#515151"/>
</svg>
