<svg width="48" height="48" viewBox="0 0 48 48" fill="none" xmlns="http://www.w3.org/2000/svg">
<path d="M45.8408 18.2852C45.4707 17.2254 44.5141 16.454 43.3658 16.2858L32.1759 14.6481L27.3125 4.70977C26.8034 3.66602 25.705 3 24.5003 3C23.2982 3 22.1998 3.66602 21.6894 4.70977L16.8261 14.6481L5.6362 16.2858C4.48404 16.454 3.53262 17.2255 3.16123 18.2852C2.78985 19.345 3.07201 20.5116 3.88431 21.307L12.0822 29.3661L10.1807 40.5431C9.98911 41.6683 10.4851 42.7975 11.4536 43.4581C11.9904 43.8171 12.6176 44 13.2436 44C13.7593 44 14.2777 43.8759 14.7435 43.633L24.5004 38.6238L34.2573 43.633C34.7245 43.8759 35.2442 44 35.7585 44C36.3845 44 37.0131 43.8171 37.5498 43.4581C38.517 42.7974 39.013 41.6682 38.8175 40.5431L36.9186 29.3661L45.1191 21.307C45.9314 20.5116 46.2069 19.345 45.8408 18.2852ZM34.1168 26.4191C33.3242 27.1972 32.8872 28.2636 32.8872 29.3661C32.8872 29.5997 32.9056 29.8319 32.9463 30.0655C32.9463 30.0655 34.0223 36.4028 34.4908 39.1604C32.2704 38.0191 26.3166 34.964 26.3166 34.964C25.7445 34.6704 25.1211 34.5235 24.5004 34.5235C23.8784 34.5235 23.255 34.6703 22.6842 34.964C22.6842 34.964 16.7277 38.0218 14.5073 39.1604C14.9771 36.4028 16.0544 30.0655 16.0544 30.0655C16.0951 29.8319 16.1135 29.5998 16.1135 29.3661C16.1135 28.2636 15.6765 27.1999 14.8826 26.4191C14.8826 26.4191 10.5166 22.1239 8.38149 20.027C11.2029 19.6133 17.4008 18.7057 17.4008 18.7057C18.7118 18.5161 19.8457 17.6792 20.4349 16.4766C20.4349 16.4766 23.3849 10.4437 24.5003 8.16666C25.6171 10.449 28.5671 16.4766 28.5671 16.4766C29.1577 17.6792 30.2915 18.5161 31.6025 18.7057C31.6025 18.7057 37.8017 19.6133 40.6219 20.027C38.4893 22.1239 34.1168 26.4191 34.1168 26.4191Z" fill="#515151"/>
</svg>
