<svg width="24" height="24" viewBox="0 0 24 24" fill="none" xmlns="http://www.w3.org/2000/svg">
<path d="M23.999 12.5005C23.999 18.8338 18.608 24 11.999 24C10.2361 24.0028 8.49436 23.6325 6.89812 22.9155C5.30189 22.1986 3.89057 21.1527 2.765 19.8525C2.68972 19.759 2.65152 19.643 2.6572 19.5251C2.66288 19.4071 2.71207 19.2949 2.79601 19.2085L4.937 17.1424C5.04633 17.0541 5.18502 17.0062 5.32801 17.0073C5.39745 17.0121 5.46512 17.0305 5.52686 17.0613C5.5886 17.0922 5.6431 17.1348 5.68701 17.1865C6.42789 18.1162 7.38324 18.8689 8.47828 19.3858C9.57332 19.9026 10.7783 20.1696 11.999 20.1659C16.405 20.1659 19.999 16.7217 19.999 12.4995C19.999 8.27724 16.405 4.83316 11.999 4.83316C9.98062 4.83105 8.03695 5.56453 6.56201 6.88488L8.703 8.95093C8.84509 9.08117 8.94222 9.24993 8.98136 9.43458C9.02051 9.61922 8.99981 9.81093 8.92202 9.98397C8.84742 10.16 8.71999 10.3109 8.55586 10.4175C8.39173 10.5242 8.19828 10.5817 7.99999 10.5829H0.999989C0.453004 10.5829 0 10.1488 0 9.62462V2.91656C0 2.5275 0.250004 2.1825 0.624996 2.03301C0.805575 1.95847 1.00562 1.93863 1.1983 1.97615C1.39099 2.01366 1.56709 2.10674 1.703 2.2429L3.73401 4.1748C5.93699 2.18347 8.92101 1 12 1C18.609 1 24 6.16615 24 12.4995L23.999 12.5005ZM13.999 8.18815V14.8962C13.999 15.1655 13.78 15.3753 13.499 15.3753H8.49899C8.43311 15.3761 8.36773 15.3642 8.30671 15.3404C8.24568 15.3166 8.19025 15.2814 8.14366 15.2367C8.09707 15.1921 8.06027 15.1389 8.03543 15.0805C8.01059 15.022 7.9982 14.9593 7.99901 14.8962V13.9379C7.99901 13.6686 8.218 13.4587 8.49899 13.4587H11.999V8.18818C11.999 7.91889 12.218 7.70903 12.499 7.70903H13.499C13.78 7.70903 13.999 7.91889 13.999 8.18818L13.999 8.18815Z" fill="#0C8128"/>
</svg>
