<svg width="24" height="24" viewBox="0 0 24 24" fill="none" xmlns="http://www.w3.org/2000/svg">
<path d="M1.0074 4.46255C1.0074 6.9272 2.97663 8.92511 5.40591 8.92511C7.83511 8.92511 9.80443 6.9272 9.80443 4.46255C9.80443 1.99799 7.83511 0 5.40591 0C2.97663 0 1.0074 1.99799 1.0074 4.46255ZM14.2029 4.46255C14.2029 6.0569 15.0412 7.53005 16.4021 8.32727C17.763 9.1244 19.4398 9.1244 20.8007 8.32727C22.1615 7.53005 23 6.0569 23 4.46255C23 1.99799 21.0306 0 18.6015 0C16.1722 0 14.2029 1.99799 14.2029 4.46255ZM18.6015 10.0408C16.3567 10.0257 14.461 11.7278 14.2029 13.9901L12.0036 16.2214L9.80443 13.9901C9.66473 11.5255 7.58216 9.64243 5.15297 9.78416C2.72369 9.92589 0.867702 12.0387 1.0074 14.5033V16.9699L9.80443 24V17.2031L11.2229 18.6423C11.6518 19.0749 12.3445 19.0749 12.7734 18.6423L14.203 17.2031V24L23 16.9699V14.5033C23 12.0387 21.0307 10.0408 18.6015 10.0408Z" fill="#515151"/>
</svg>
