<svg width="24" height="24" viewBox="0 0 24 24" fill="none" xmlns="http://www.w3.org/2000/svg">
<path d="M23 2.02627L22.945 13.1927L22.9175 13.3164C22.8762 13.4952 22.6975 13.949 22.0925 14.2928C21.5975 14.5679 20.9237 14.7191 20.0987 14.7191H19.9887C18.9437 14.7054 17.5962 14.4716 16.015 14.0315C15.1756 13.7828 14.3054 13.6532 13.43 13.6465C11.5462 13.6465 10.2262 14.3066 9.38748 14.9529C8.80998 15.393 8.60372 16.1768 8.90623 16.8506L11.0237 21.595C11.2437 22.1038 11.0237 22.6814 10.515 22.9152C10.2724 23.0218 9.99741 23.0282 9.75012 22.9328C9.50283 22.8375 9.30327 22.6483 9.19498 22.4063L1.08246 4.22655C0.996372 4.02714 0.977078 3.80524 1.02746 3.59397C1.03567 3.51245 1.05899 3.43317 1.09621 3.36019C1.20621 3.0714 1.43996 2.82387 1.72871 2.70011C2.95247 2.15004 4.23122 1.72373 5.53747 1.43495C6.77497 1.15991 7.97122 1.02239 9.11248 1.02239C10.2537 1.02239 11.2712 1.15991 12.2612 1.40744C14.6812 2.04002 16.4 2.28755 17.6925 2.28755C19.535 2.28755 20.525 1.77874 21.4325 1.17366L21.4737 1.14616C21.79 0.953636 22.175 0.953636 22.4912 1.13241C22.8075 1.32493 23 1.65497 23 2.02627Z" fill="#D81E06"/>
</svg>
