<svg width="32" height="32" viewBox="0 0 32 32" fill="none" xmlns="http://www.w3.org/2000/svg">
<g clip-path="url(#clip0_41_106)">
<path d="M30.9375 12.4112C30.6785 11.6819 30.0089 11.151 29.2052 11.0352L21.3728 9.90819L17.9686 3.06873C17.6122 2.35044 16.8434 1.89209 16.0002 1.89209C15.1588 1.89209 14.39 2.35044 14.0327 3.06873L10.6286 9.90819L2.79621 11.0352C1.98975 11.151 1.3238 11.6819 1.06384 12.4112C0.803893 13.1406 1.00139 13.9433 1.56997 14.4908L7.30809 20.0369L5.97712 27.7288C5.84304 28.5031 6.19023 29.2802 6.86813 29.7349C7.24381 29.982 7.68288 30.1078 8.12101 30.1078C8.48202 30.1078 8.84484 30.0224 9.17089 29.8552L16.0003 26.408L22.8296 29.8552C23.1567 30.0224 23.5204 30.1078 23.8804 30.1078C24.3186 30.1078 24.7586 29.9819 25.1342 29.7349C25.8112 29.2802 26.1584 28.5031 26.0215 27.7288L24.6924 20.0369L30.4324 14.4908C31.001 13.9434 31.1938 13.1406 30.9375 12.4112ZM22.7313 18.0088C22.1765 18.5443 21.8706 19.2782 21.8706 20.0369C21.8706 20.1977 21.8835 20.3575 21.912 20.5183C21.912 20.5183 22.6652 24.8795 22.9931 26.7772C21.4389 25.9918 17.2715 23.8893 17.2715 23.8893C16.871 23.6873 16.4347 23.5862 16.0002 23.5862C15.5649 23.5862 15.1285 23.6872 14.729 23.8893C14.729 23.8893 10.5597 25.9937 9.00553 26.7772C9.33437 24.8795 10.0885 20.5183 10.0885 20.5183C10.117 20.3575 10.1298 20.1977 10.1298 20.0369C10.1298 19.2782 9.82395 18.5462 9.26824 18.0088C9.26824 18.0088 6.21226 15.0529 4.71778 13.6099C6.69267 13.3252 11.0309 12.7005 11.0309 12.7005C11.9485 12.5701 12.7422 11.9942 13.1546 11.1665C13.1546 11.1665 15.2195 7.01476 16.0002 5.44773C16.7819 7.01841 18.8468 11.1665 18.8468 11.1665C19.2601 11.9942 20.0538 12.5701 20.9714 12.7005C20.9714 12.7005 25.3106 13.3251 27.2845 13.6099C25.7919 15.053 22.7313 18.0088 22.7313 18.0088Z" fill="#000A64"/>
</g>
<defs>
<clipPath id="clip0_41_106">
<rect width="32" height="32" fill="white"/>
</clipPath>
</defs>
</svg>
