<svg width="32" height="32" viewBox="0 0 32 32" fill="none" xmlns="http://www.w3.org/2000/svg">
<path d="M26.3028 13.1449C26.1328 12.6662 25.6933 12.3178 25.1659 12.2419L20.0259 11.5023L17.7919 7.01387C17.558 6.54249 17.0535 6.2417 16.5001 6.2417C15.948 6.2417 15.4434 6.54249 15.209 7.01387L12.975 11.5023L7.83501 12.2419C7.30577 12.3178 6.86874 12.6663 6.69815 13.1449C6.52755 13.6235 6.65716 14.1503 7.03029 14.5096L10.7959 18.1493L9.92248 23.197C9.83449 23.7052 10.0623 24.2152 10.5072 24.5135C10.7538 24.6757 11.0419 24.7583 11.3294 24.7583C11.5663 24.7583 11.8044 24.7022 12.0184 24.5925L16.5002 22.3302L20.9819 24.5925C21.1966 24.7022 21.4353 24.7583 21.6715 24.7583C21.9591 24.7583 22.2478 24.6757 22.4943 24.5135C22.9386 24.2152 23.1665 23.7052 23.0766 23.197L22.2044 18.1493L25.9713 14.5096C26.3444 14.1504 26.4709 13.6235 26.3028 13.1449ZM20.9174 16.8183C20.5533 17.1697 20.3526 17.6513 20.3526 18.1493C20.3526 18.2548 20.361 18.3596 20.3797 18.4651C20.3797 18.4651 20.874 21.3272 21.0892 22.5726C20.0693 22.0572 17.3344 20.6774 17.3344 20.6774C17.0716 20.5448 16.7853 20.4784 16.5002 20.4784C16.2144 20.4784 15.9281 20.5448 15.6659 20.6774C15.6659 20.6774 12.9298 22.0584 11.9099 22.5726C12.1257 21.3272 12.6206 18.4651 12.6206 18.4651C12.6393 18.3596 12.6477 18.2548 12.6477 18.1493C12.6477 17.6513 12.447 17.1709 12.0823 16.8183C12.0823 16.8183 10.0768 14.8785 9.09604 13.9315C10.3921 13.7447 13.239 13.3347 13.239 13.3347C13.8412 13.2491 14.362 12.8712 14.6327 12.3281C14.6327 12.3281 15.9878 9.60345 16.5001 8.57509C17.0131 9.60584 18.3682 12.3281 18.3682 12.3281C18.6395 12.8712 19.1603 13.2491 19.7625 13.3347C19.7625 13.3347 22.6101 13.7446 23.9055 13.9315C22.9259 14.8785 20.9174 16.8183 20.9174 16.8183Z" fill="#515151"/>
</svg>
