<svg width="24" height="24" viewBox="0 0 24 24" fill="none" xmlns="http://www.w3.org/2000/svg">
<g clip-path="url(#clip0_38_7)">
<path d="M14.76 12.3201C18.9085 13.3676 21.8417 16.5944 21.8417 20.2401C21.8417 23.0059 16.52 23.9699 11.9525 23.9699C9.43826 23.9699 7.0914 23.6761 5.3314 23.1316C2.6074 22.2933 2.02112 21.1201 2.02112 20.2401C2.02112 16.5527 4.87026 13.3676 9.10283 12.3201C9.27026 12.2784 9.39597 12.3201 9.52169 12.4041C10.6531 13.2841 12.1617 13.4516 13.5028 12.907C13.8049 12.7803 14.0872 12.611 14.3411 12.4041C14.4668 12.3201 14.6343 12.2784 14.76 12.3201ZM11.6588 15.0019C10.1925 15.0019 8.97712 16.2173 8.97712 17.7259C8.97712 18.019 9.18683 18.2287 9.47998 18.2287H13.8383C14.1314 18.2287 14.3411 17.9773 14.3411 17.7259C14.3411 16.2173 13.1257 15.0019 11.6588 15.0019ZM17.9868 0.670425C18.4057 1.13157 18.3217 2.05328 17.7771 4.44185C17.7354 4.56757 17.7354 4.69328 17.6931 4.73557C17.6514 5.02871 17.6097 5.28014 17.5674 5.53157C17.1903 8.12985 16.8131 10.3927 14.2571 11.5241C13.5028 11.859 12.7068 12.027 11.8685 12.027C11.1143 12.027 10.36 11.9013 9.6474 11.6076C8.13883 11.0213 7.0074 9.88985 6.33712 8.423C5.66683 6.95614 5.66683 5.32185 6.25312 3.81328C6.83998 2.30471 7.9714 1.17328 9.43826 0.502996C10.9045 -0.083861 17.1903 -0.25129 17.9868 0.670425ZM13.7543 5.11271C13.3771 5.15442 13.1674 5.48985 13.2097 5.82471C13.2514 5.99271 13.2931 6.62128 12.8743 7.16585C12.4131 7.79443 11.6171 7.83614 11.5331 7.83614C11.156 7.83614 10.9045 8.12985 10.9045 8.46471C10.9045 8.80014 11.1983 9.09328 11.5331 9.09328C11.7845 9.09328 13.0417 9.00985 13.88 7.96185C14.6343 6.99842 14.5085 5.90871 14.4668 5.61557C14.4245 5.28014 14.0897 5.07042 13.7543 5.11271Z" fill="#515151"/>
</g>
<defs>
<clipPath id="clip0_38_7">
<rect width="24" height="24" fill="white"/>
</clipPath>
</defs>
</svg>
