<svg width="24" height="24" viewBox="0 0 24 24" fill="none" xmlns="http://www.w3.org/2000/svg">
<path d="M23 5.71423C23 4.88069 22.6689 4.08129 22.0795 3.49189C21.4901 2.90248 20.6907 2.57136 19.8571 2.57136H19.0714V1.80774C19.0714 1.38493 18.7463 1.02203 18.3235 1.00091C18.2173 0.995792 18.1111 1.0123 18.0115 1.04942C17.9118 1.08655 17.8207 1.14352 17.7437 1.21689C17.6667 1.29027 17.6054 1.37851 17.5635 1.47627C17.5216 1.57404 17.5 1.67929 17.5 1.78565V2.57136H6.5V1.80774C6.5 1.38493 6.17491 1.02203 5.7521 1.00091C5.64586 0.995792 5.53969 1.0123 5.44002 1.04942C5.34035 1.08655 5.24926 1.14352 5.17226 1.21689C5.09526 1.29027 5.03396 1.37851 4.99207 1.47627C4.95018 1.57404 4.92858 1.67929 4.92857 1.78565V2.57136H4.14286C3.30932 2.57136 2.50992 2.90248 1.92052 3.49189C1.33112 4.08129 1 4.88069 1 5.71423V6.30352C1 6.35561 1.0207 6.40558 1.05753 6.44241C1.09437 6.47925 1.14433 6.49995 1.19643 6.49995H22.8036C22.8557 6.49995 22.9056 6.47925 22.9425 6.44241C22.9793 6.40558 23 6.35561 23 6.30352V5.71423ZM1 19.8571C1 20.6907 1.33112 21.4901 1.92052 22.0795C2.50992 22.6689 3.30932 23 4.14286 23H19.8571C20.6907 23 21.4901 22.6689 22.0795 22.0795C22.6689 21.4901 23 20.6907 23 19.8571V8.2187C23 8.17963 22.9845 8.14216 22.9568 8.11453C22.9292 8.0869 22.8918 8.07138 22.8527 8.07138H1.14732C1.10825 8.07138 1.07078 8.0869 1.04315 8.11453C1.01552 8.14216 1 8.17963 1 8.2187V19.8571ZM17.8929 9.64281C18.126 9.64281 18.3538 9.71194 18.5476 9.84144C18.7415 9.97094 18.8925 10.155 18.9817 10.3704C19.0709 10.5857 19.0943 10.8227 19.0488 11.0513C19.0033 11.2799 18.8911 11.4899 18.7262 11.6548C18.5614 11.8196 18.3514 11.9318 18.1228 11.9773C17.8942 12.0228 17.6572 11.9995 17.4418 11.9103C17.2265 11.821 17.0424 11.67 16.9129 11.4762C16.7834 11.2824 16.7143 11.0545 16.7143 10.8214C16.7143 10.5088 16.8385 10.209 17.0595 9.98801C17.2805 9.76698 17.5803 9.64281 17.8929 9.64281ZM17.8929 13.5714C18.126 13.5714 18.3538 13.6405 18.5476 13.77C18.7415 13.8995 18.8925 14.0836 18.9817 14.299C19.0709 14.5143 19.0943 14.7513 19.0488 14.9799C19.0033 15.2085 18.8911 15.4185 18.7262 15.5834C18.5614 15.7482 18.3514 15.8604 18.1228 15.9059C17.8942 15.9514 17.6572 15.928 17.4418 15.8388C17.2265 15.7496 17.0424 15.5986 16.9129 15.4048C16.7834 15.2109 16.7143 14.9831 16.7143 14.75C16.7143 14.4374 16.8385 14.1376 17.0595 13.9166C17.2805 13.6956 17.5803 13.5714 17.8929 13.5714ZM13.9643 9.64281C14.1974 9.64281 14.4252 9.71194 14.6191 9.84144C14.8129 9.97094 14.9639 10.155 15.0531 10.3704C15.1423 10.5857 15.1657 10.8227 15.1202 11.0513C15.0747 11.2799 14.9625 11.4899 14.7977 11.6548C14.6328 11.8196 14.4228 11.9318 14.1942 11.9773C13.9656 12.0228 13.7286 11.9995 13.5133 11.9103C13.2979 11.821 13.1138 11.67 12.9843 11.4762C12.8548 11.2824 12.7857 11.0545 12.7857 10.8214C12.7857 10.5088 12.9099 10.209 13.1309 9.98801C13.3519 9.76698 13.6517 9.64281 13.9643 9.64281ZM13.9643 13.5714C14.1974 13.5714 14.4252 13.6405 14.6191 13.77C14.8129 13.8995 14.9639 14.0836 15.0531 14.299C15.1423 14.5143 15.1657 14.7513 15.1202 14.9799C15.0747 15.2085 14.9625 15.4185 14.7977 15.5834C14.6328 15.7482 14.4228 15.8604 14.1942 15.9059C13.9656 15.9514 13.7286 15.928 13.5133 15.8388C13.2979 15.7496 13.1138 15.5986 12.9843 15.4048C12.8548 15.2109 12.7857 14.9831 12.7857 14.75C12.7857 14.4374 12.9099 14.1376 13.1309 13.9166C13.3519 13.6956 13.6517 13.5714 13.9643 13.5714ZM13.9643 17.5C14.1974 17.5 14.4252 17.5691 14.6191 17.6986C14.8129 17.8281 14.9639 18.0122 15.0531 18.2275C15.1423 18.4429 15.1657 18.6799 15.1202 18.9085C15.0747 19.1371 14.9625 19.3471 14.7977 19.5119C14.6328 19.6768 14.4228 19.789 14.1942 19.8345C13.9656 19.88 13.7286 19.8566 13.5133 19.7674C13.2979 19.6782 13.1138 19.5272 12.9843 19.3333C12.8548 19.1395 12.7857 18.9117 12.7857 18.6786C12.7857 18.366 12.9099 18.0662 13.1309 17.8452C13.3519 17.6242 13.6517 17.5 13.9643 17.5ZM10.0357 13.5714C10.2688 13.5714 10.4967 13.6405 10.6905 13.77C10.8843 13.8995 11.0354 14.0836 11.1246 14.299C11.2138 14.5143 11.2371 14.7513 11.1916 14.9799C11.1462 15.2085 11.0339 15.4185 10.8691 15.5834C10.7043 15.7482 10.4943 15.8604 10.2656 15.9059C10.037 15.9514 9.80005 15.928 9.58469 15.8388C9.36934 15.7496 9.18527 15.5986 9.05577 15.4048C8.92626 15.2109 8.85714 14.9831 8.85714 14.75C8.85714 14.4374 8.98131 14.1376 9.20234 13.9166C9.42336 13.6956 9.72314 13.5714 10.0357 13.5714ZM10.0357 17.5C10.2688 17.5 10.4967 17.5691 10.6905 17.6986C10.8843 17.8281 11.0354 18.0122 11.1246 18.2275C11.2138 18.4429 11.2371 18.6799 11.1916 18.9085C11.1462 19.1371 11.0339 19.3471 10.8691 19.5119C10.7043 19.6768 10.4943 19.789 10.2656 19.8345C10.037 19.88 9.80005 19.8566 9.58469 19.7674C9.36934 19.6782 9.18527 19.5272 9.05577 19.3333C8.92626 19.1395 8.85714 18.9117 8.85714 18.6786C8.85714 18.366 8.98131 18.0662 9.20234 17.8452C9.42336 17.6242 9.72314 17.5 10.0357 17.5ZM6.10714 13.5714C6.34024 13.5714 6.56811 13.6405 6.76192 13.77C6.95574 13.8995 7.1068 14.0836 7.196 14.299C7.2852 14.5143 7.30854 14.7513 7.26307 14.9799C7.21759 15.2085 7.10534 15.4185 6.94052 15.5834C6.77569 15.7482 6.56569 15.8604 6.33707 15.9059C6.10845 15.9514 5.87148 15.928 5.65612 15.8388C5.44077 15.7496 5.2567 15.5986 5.1272 15.4048C4.99769 15.2109 4.92857 14.9831 4.92857 14.75C4.92857 14.4374 5.05274 14.1376 5.27377 13.9166C5.49479 13.6956 5.79457 13.5714 6.10714 13.5714ZM6.10714 17.5C6.34024 17.5 6.56811 17.5691 6.76192 17.6986C6.95574 17.8281 7.1068 18.0122 7.196 18.2275C7.2852 18.4429 7.30854 18.6799 7.26307 18.9085C7.21759 19.1371 7.10534 19.3471 6.94052 19.5119C6.77569 19.6768 6.56569 19.789 6.33707 19.8345C6.10845 19.88 5.87148 19.8566 5.65612 19.7674C5.44077 19.6782 5.2567 19.5272 5.1272 19.3333C4.99769 19.1395 4.92857 18.9117 4.92857 18.6786C4.92857 18.366 5.05274 18.0662 5.27377 17.8452C5.49479 17.6242 5.79457 17.5 6.10714 17.5Z" fill="#D81E06"/>
</svg>
