<svg width="32" height="32" viewBox="0 0 32 32" fill="none" xmlns="http://www.w3.org/2000/svg">
<g clip-path="url(#clip0_41_103)">
<g clip-path="url(#clip1_41_103)">
<path d="M2.672 29.334H32V32H0V29.334H0.006V0H2.672V29.334ZM12.006 16C10.9451 16 9.92772 15.5786 9.17757 14.8284C8.42743 14.0783 8.006 13.0609 8.006 12C8.006 10.9391 8.42743 9.92172 9.17757 9.17157C9.92772 8.42143 10.9451 8 12.006 8C13.0669 8 14.0843 8.42143 14.8344 9.17157C15.5846 9.92172 16.006 10.9391 16.006 12C16.006 13.0609 15.5846 14.0783 14.8344 14.8284C14.0843 15.5786 13.0669 16 12.006 16ZM21.34 25.334C20.2791 25.334 19.2617 24.9126 18.5116 24.1624C17.7614 23.4123 17.34 22.3949 17.34 21.334C17.34 20.2731 17.7614 19.2557 18.5116 18.5056C19.2617 17.7554 20.2791 17.334 21.34 17.334C22.4009 17.334 23.4183 17.7554 24.1684 18.5056C24.9186 19.2557 25.34 20.2731 25.34 21.334C25.34 22.3949 24.9186 23.4123 24.1684 24.1624C23.4183 24.9126 22.4009 25.334 21.34 25.334ZM10.006 6.666C9.47557 6.666 8.96686 6.45529 8.59179 6.08021C8.21671 5.70514 8.006 5.19643 8.006 4.666C8.006 4.13557 8.21671 3.62686 8.59179 3.25179C8.96686 2.87671 9.47557 2.666 10.006 2.666C10.5364 2.666 11.0451 2.87671 11.4202 3.25179C11.7953 3.62686 12.006 4.13557 12.006 4.666C12.006 5.19643 11.7953 5.70514 11.4202 6.08021C11.0451 6.45529 10.5364 6.666 10.006 6.666ZM8.672 25.334C8.14157 25.334 7.63286 25.1233 7.25779 24.7482C6.88271 24.3731 6.672 23.8644 6.672 23.334C6.672 22.8036 6.88271 22.2949 7.25779 21.9198C7.63286 21.5447 8.14157 21.334 8.672 21.334C9.20243 21.334 9.71114 21.5447 10.0862 21.9198C10.4613 22.2949 10.672 22.8036 10.672 23.334C10.672 23.8644 10.4613 24.3731 10.0862 24.7482C9.71114 25.1233 9.20243 25.334 8.672 25.334ZM22.006 14.666C21.4756 14.666 20.9669 14.4553 20.5918 14.0802C20.2167 13.7051 20.006 13.1964 20.006 12.666C20.006 12.1356 20.2167 11.6269 20.5918 11.2518C20.9669 10.8767 21.4756 10.666 22.006 10.666C22.5364 10.666 23.0451 10.8767 23.4202 11.2518C23.7953 11.6269 24.006 12.1356 24.006 12.666C24.006 13.1964 23.7953 13.7051 23.4202 14.0802C23.0451 14.4553 22.5364 14.666 22.006 14.666ZM28.672 12C28.1416 12 27.6329 11.7893 27.2578 11.4142C26.8827 11.0391 26.672 10.5304 26.672 10C26.672 9.46957 26.8827 8.96086 27.2578 8.58579C27.6329 8.21071 28.1416 8 28.672 8C29.2024 8 29.7111 8.21071 30.0862 8.58579C30.4613 8.96086 30.672 9.46957 30.672 10C30.672 10.5304 30.4613 11.0391 30.0862 11.4142C29.7111 11.7893 29.2024 12 28.672 12ZM23.34 5.334C22.8096 5.334 22.3009 5.12329 21.9258 4.74821C21.5507 4.37314 21.34 3.86443 21.34 3.334C21.34 2.80357 21.5507 2.29486 21.9258 1.91979C22.3009 1.54471 22.8096 1.334 23.34 1.334C23.8704 1.334 24.3791 1.54471 24.7542 1.91979C25.1293 2.29486 25.34 2.80357 25.34 3.334C25.34 3.86443 25.1293 4.37314 24.7542 4.74821C24.3791 5.12329 23.8704 5.334 23.34 5.334ZM14.006 21.334C13.4756 21.334 12.9669 21.1233 12.5918 20.7482C12.2167 20.3731 12.006 19.8644 12.006 19.334C12.006 18.8036 12.2167 18.2949 12.5918 17.9198C12.9669 17.5447 13.4756 17.334 14.006 17.334C14.5364 17.334 15.0451 17.5447 15.4202 17.9198C15.7953 18.2949 16.006 18.8036 16.006 19.334C16.006 19.8644 15.7953 20.3731 15.4202 20.7482C15.0451 21.1233 14.5364 21.334 14.006 21.334Z" fill="#000A64"/>
</g>
</g>
<defs>
<clipPath id="clip0_41_103">
<rect width="32" height="32" fill="white"/>
</clipPath>
<clipPath id="clip1_41_103">
<rect width="32" height="32" fill="white"/>
</clipPath>
</defs>
</svg>
