<svg width="32" height="32" viewBox="0 0 32 32" fill="none" xmlns="http://www.w3.org/2000/svg">
<path d="M11.7573 15.5761C10.4118 15.9843 9.50917 17.1854 9.59992 18.4706C10.0274 17.9737 10.6803 17.5448 11.4712 17.2628L11.7573 15.5761ZM7.59294 17.5233L6.40307 10.5113C6.3922 10.448 6.41357 10.4089 6.41207 10.4078C8.57806 9.15543 11.029 8.49333 13.4999 8.49333C13.5603 8.49333 13.621 8.49997 13.6818 8.50075C14.2049 7.97459 14.8716 7.60897 15.6164 7.48514C16.3247 7.36717 17.0432 7.30741 17.7606 7.27733C17.386 6.73241 16.8426 6.33086 16.1942 6.22265C15.2976 6.07383 14.3965 6 13.4995 6C10.6248 6 7.78831 6.75859 5.24508 8.22888C4.33871 8.75309 3.85309 9.84683 4.03946 10.9445L5.22933 17.9565C5.76295 21.1018 10.3417 23.5064 12.8961 23.5064C13.0308 23.5064 13.1493 23.4885 13.2715 23.4752C12.7645 22.808 12.1863 21.894 11.7903 20.8354C10.0049 20.3283 7.81306 18.819 7.59294 17.5233ZM11.251 12.1538C11.2237 11.9929 11.1674 11.8464 11.0984 11.7085C10.789 12.0566 10.3233 12.3238 9.77392 12.4241C9.22455 12.5249 8.69881 12.4398 8.29343 12.2222C8.27393 12.3761 8.26943 12.5339 8.29681 12.6948C8.44081 13.5425 9.21855 14.1085 10.0345 13.9593C10.8502 13.8101 11.395 13.0015 11.251 12.1538ZM26.7549 10.7226C23.4182 8.79372 19.5764 8.08943 15.8058 8.71677C14.7816 8.88708 13.9653 9.74253 13.7793 10.8402L12.5894 17.8522C12.0123 21.2526 16.1624 25.5189 18.526 25.9517C20.8896 26.3849 26.1936 23.8506 26.7707 20.4502L27.9605 13.4382C28.1469 12.3402 27.6613 11.2464 26.7549 10.7226ZM16.5085 14.5038C16.6525 13.6562 17.4302 13.0902 18.2462 13.2398C19.0622 13.3894 19.6067 14.1976 19.4631 15.0452C19.4357 15.2061 19.3795 15.3526 19.3105 15.4905C19.0011 15.1425 18.5354 14.8753 17.986 14.7749C17.4366 14.6741 16.9109 14.7593 16.5055 14.9768C16.4856 14.8226 16.4811 14.6647 16.5085 14.5038ZM19.1511 22.2678C17.0631 21.8854 15.6441 19.9526 15.8121 17.8577C16.5846 18.8553 17.92 19.6612 19.543 19.9584C21.166 20.2557 22.6862 19.9729 23.7403 19.31C23.2086 21.3389 21.2387 22.6502 19.1511 22.2678ZM24.0373 16.3561C23.7279 16.0081 23.2618 15.7409 22.7125 15.6405C22.1631 15.5397 21.6373 15.6249 21.232 15.8425C21.2125 15.6886 21.208 15.5307 21.2353 15.3698C21.3793 14.5222 22.1571 13.9562 22.9731 14.1054C23.7887 14.255 24.3336 15.0632 24.1899 15.9108C24.1626 16.0721 24.1063 16.2186 24.0373 16.3561Z" fill="#515151"/>
</svg>
