<svg width="18" height="18" viewBox="0 0 18 18" fill="none" xmlns="http://www.w3.org/2000/svg">
<g clip-path="url(#clip0_41_81)">
<path d="M13.2857 18H1.28573C0.814303 18 0.428589 17.6143 0.428589 17.1429V4.28571C0.428589 3.81429 0.814303 3.42857 1.28573 3.42857H3.85716V0.857143C3.85716 0.385714 4.24287 0 4.7143 0H16.7143C17.1857 0 17.5714 0.385714 17.5714 0.857143V13.7143C17.5714 14.1857 17.1857 14.5714 16.7143 14.5714H14.1429V17.1429C14.1429 17.6143 13.7572 18 13.2857 18ZM2.14287 16.2857H12.4286V5.14286H2.14287V16.2857ZM5.57145 1.71429V3.42857H13.2857C13.7572 3.42857 14.1429 3.81429 14.1429 4.28571V12.8571H15.8572V1.71429H5.57145Z" fill="#515151"/>
<path d="M4.71426 8.57073H7.28569C7.75712 8.57073 8.14283 8.18502 8.14283 7.71359C8.14283 7.24216 7.75712 6.85645 7.28569 6.85645H4.71426C4.24283 6.85645 3.85712 7.24216 3.85712 7.71359C3.85712 8.18502 4.24283 8.57073 4.71426 8.57073ZM8.99997 10.285H4.71426C4.24283 10.285 3.85712 10.6707 3.85712 11.1422C3.85712 11.6136 4.24283 11.9993 4.71426 11.9993H8.99997C9.4714 11.9993 9.85712 11.6136 9.85712 11.1422C9.85712 10.6707 9.4714 10.285 8.99997 10.285Z" fill="#515151"/>
</g>
<defs>
<clipPath id="clip0_41_81">
<rect width="18" height="18" fill="white"/>
</clipPath>
</defs>
</svg>
