<svg width="24" height="24" viewBox="0 0 24 24" fill="none" xmlns="http://www.w3.org/2000/svg">
<path d="M23.8726 12.3618L14.0352 2.09621C11.9407 -0.370257 9.96456 2.09621 9.96456 2.09621L0.127231 11.9951C-0.61921 15.0854 2.16249 14.195 2.16249 14.195L10.3038 6.12925C12.1961 4.08516 13.696 6.12925 13.696 6.12925L22.1766 14.5617C24.6916 15.1087 23.8726 12.3618 23.8726 12.3618Z" fill="#0C8128"/>
<path d="M13.3568 8.32981C13.3568 8.32981 11.8364 6.92417 10.6432 8.32981L2.84106 16.0291V22.2616C2.84106 22.2616 3.18746 22.8123 3.85868 22.995C4.17475 22.9463 9.6255 22.995 9.6255 22.995V18.9621C9.6255 18.9621 9.57679 18.6735 9.9646 18.5954H14.0353C14.0353 18.5954 14.3341 18.3584 14.3746 18.9621V22.995H19.8021C19.8021 22.995 20.6847 23.1106 20.8199 22.2616V16.0291L13.3568 8.32981Z" fill="#0C8128"/>
</svg>
