<svg width="24" height="24" viewBox="0 0 24 24" fill="none" xmlns="http://www.w3.org/2000/svg">
<path d="M7.75728 11.5761C6.41179 11.9843 5.50917 13.1854 5.59992 14.4706C6.02742 13.9737 6.68029 13.5448 7.47116 13.2628L7.75728 11.5761ZM3.59294 13.5233L2.40307 6.51128C2.3922 6.448 2.41357 6.40893 2.41207 6.40776C4.57806 5.15543 7.02904 4.49333 9.49989 4.49333C9.56027 4.49333 9.62102 4.49997 9.68177 4.50075C10.2049 3.97459 10.8716 3.60897 11.6164 3.48514C12.3247 3.36717 13.0432 3.30741 13.7606 3.27733C13.386 2.73241 12.8426 2.33086 12.1942 2.22265C11.2976 2.07383 10.3965 2 9.49952 2C6.62479 2 3.78831 2.75859 1.24508 4.22888C0.338712 4.75309 -0.146909 5.84683 0.0394647 6.94447L1.22933 13.9565C1.76295 17.1018 6.34167 19.5064 8.89615 19.5064C9.03077 19.5064 9.14927 19.4885 9.27152 19.4752C8.76453 18.808 8.18628 17.894 7.79028 16.8354C6.00492 16.3283 3.81306 14.819 3.59294 13.5233ZM7.25104 8.15383C7.22366 7.9929 7.16741 7.84642 7.09841 7.70853C6.78904 8.05657 6.32329 8.32375 5.77392 8.42414C5.22455 8.52492 4.69881 8.43977 4.29343 8.22219C4.27393 8.3761 4.26943 8.53391 4.29681 8.69484C4.44081 9.54249 5.21855 10.1085 6.03455 9.95928C6.85016 9.81007 7.39504 9.00148 7.25104 8.15383ZM22.7549 6.7226C19.4182 4.79372 15.5764 4.08943 11.8058 4.71677C10.7816 4.88708 9.96527 5.74253 9.77927 6.84018L8.5894 13.8522C8.01228 17.2526 12.1624 21.5189 14.526 21.9517C16.8896 22.3849 22.1936 19.8506 22.7707 16.4502L23.9605 9.43819C24.1469 8.34016 23.6613 7.24642 22.7549 6.7226ZM12.5085 10.5038C12.6525 9.65616 13.4302 9.09015 14.2462 9.23976C15.0622 9.38937 15.6067 10.1976 15.4631 11.0452C15.4357 11.2061 15.3795 11.3526 15.3105 11.4905C15.0011 11.1425 14.5354 10.8753 13.986 10.7749C13.4366 10.6741 12.9109 10.7593 12.5055 10.9768C12.4856 10.8226 12.4811 10.6647 12.5085 10.5038ZM15.1511 18.2678C13.0631 17.8854 11.6441 15.9526 11.8121 13.8577C12.5846 14.8553 13.92 15.6612 15.543 15.9584C17.166 16.2557 18.6862 15.9729 19.7403 15.31C19.2086 17.3389 17.2387 18.6502 15.1511 18.2678ZM20.0373 12.3561C19.7279 12.0081 19.2618 11.7409 18.7125 11.6405C18.1631 11.5397 17.6373 11.6249 17.232 11.8425C17.2125 11.6886 17.208 11.5307 17.2353 11.3698C17.3793 10.5222 18.1571 9.95616 18.9731 10.1054C19.7887 10.255 20.3336 11.0632 20.1899 11.9108C20.1626 12.0721 20.1063 12.2186 20.0373 12.3561Z" fill="#515151"/>
</svg>
