<svg width="48" height="48" viewBox="0 0 48 48" fill="none" xmlns="http://www.w3.org/2000/svg">
<path d="M1 30.3679C1 26.5252 2.52652 22.8399 5.24374 20.1226C7.96096 17.4054 11.6463 15.8789 15.489 15.8789C19.3318 15.8789 23.0171 17.4054 25.7343 20.1226C28.4515 22.8399 29.978 26.5252 29.978 30.3679C29.978 34.2107 28.4515 37.896 25.7343 40.6132C23.0171 43.3304 19.3318 44.857 15.489 44.857C11.6463 44.857 7.96096 43.3304 5.24374 40.6132C2.52652 37.896 1 34.2107 1 30.3679ZM15.489 19.0987C12.5002 19.0987 9.63386 20.286 7.52047 22.3994C5.40707 24.5128 4.21978 27.3791 4.21978 30.3679C4.21978 33.3567 5.40707 36.2231 7.52047 38.3365C9.63386 40.4499 12.5002 41.6372 15.489 41.6372C18.4778 41.6372 21.3442 40.4499 23.4576 38.3365C25.571 36.2231 26.7583 33.3567 26.7583 30.3679C26.7583 27.3791 25.571 24.5128 23.4576 22.3994C21.3442 20.286 18.4778 19.0987 15.489 19.0987Z" fill="#515151"/>
<path d="M17.0989 30.3679C17.0989 26.5252 18.6254 22.8399 21.3426 20.1226C24.0598 17.4054 27.7452 15.8789 31.5879 15.8789C35.4306 15.8789 39.116 17.4054 41.8332 20.1226C44.5504 22.8399 46.0769 26.5252 46.0769 30.3679C46.0769 34.2107 44.5504 37.896 41.8332 40.6132C39.116 43.3304 35.4306 44.857 31.5879 44.857C27.7452 44.857 24.0598 43.3304 21.3426 40.6132C18.6254 37.896 17.0989 34.2107 17.0989 30.3679ZM31.5879 19.0987C28.5991 19.0987 25.7327 20.286 23.6193 22.3994C21.506 24.5128 20.3187 27.3791 20.3187 30.3679C20.3187 33.3567 21.506 36.2231 23.6193 38.3365C25.7327 40.4499 28.5991 41.6372 31.5879 41.6372C34.5767 41.6372 37.4431 40.4499 39.5565 38.3365C41.6698 36.2231 42.8571 33.3567 42.8571 30.3679C42.8571 27.3791 41.6698 24.5128 39.5565 22.3994C37.4431 20.286 34.5767 19.0987 31.5879 19.0987Z" fill="#515151"/>
<path d="M9.0495 17.489C9.0495 13.6463 10.576 9.96096 13.2932 7.24374C16.0105 4.52652 19.6958 3 23.5385 3C27.3813 3 31.0666 4.52652 33.7838 7.24374C36.501 9.96096 38.0276 13.6463 38.0276 17.489C38.0276 21.3318 36.501 25.0171 33.7838 27.7343C31.0666 30.4515 27.3813 31.978 23.5385 31.978C19.6958 31.978 16.0105 30.4515 13.2932 27.7343C10.576 25.0171 9.0495 21.3318 9.0495 17.489ZM23.5385 6.21978C20.5497 6.21978 17.6834 7.40707 15.57 9.52047C13.4566 11.6339 12.2693 14.5002 12.2693 17.489C12.2693 20.4778 13.4566 23.3442 15.57 25.4576C17.6834 27.571 20.5497 28.7583 23.5385 28.7583C26.5273 28.7583 29.3937 27.571 31.5071 25.4576C33.6205 23.3442 34.8078 20.4778 34.8078 17.489C34.8078 14.5002 33.6205 11.6339 31.5071 9.52047C29.3937 7.40707 26.5273 6.21978 23.5385 6.21978Z" fill="#515151"/>
</svg>
