<svg width="48" height="48" viewBox="0 0 48 48" fill="none" xmlns="http://www.w3.org/2000/svg">
<path d="M29.125 6C31.4104 6 33.5956 6.46394 35.6806 7.39183C37.7656 8.31972 39.5599 9.5648 41.0635 11.1271C42.5671 12.6893 43.7659 14.5529 44.6599 16.7178C45.5539 18.8827 46.0006 21.1522 46 23.5265C46 25.7374 45.6118 27.8624 44.8354 29.9014C44.059 31.9404 43.0042 33.7255 41.671 35.2566C40.3378 36.7877 38.746 38.058 36.8956 39.0675C35.0452 40.0771 33.0799 40.7033 30.9997 40.9464V37.0214C33.0991 36.7067 35.0059 35.9181 36.7201 34.6555C38.4343 33.393 39.7843 31.7852 40.7701 29.8323C41.7559 27.8793 42.2491 25.7773 42.2497 23.5265C42.2497 21.6807 41.9029 19.9159 41.2093 18.2321C40.5157 16.5483 39.583 15.0979 38.4112 13.8808C37.2394 12.6638 35.8429 11.6951 34.2217 10.9747C32.6005 10.2543 30.9013 9.89415 29.1241 9.89415C27.5029 9.89415 25.9429 10.1958 24.4441 10.799C22.9453 11.4022 21.6268 12.2213 20.4886 13.2564C19.3504 14.2915 18.3982 15.5288 17.632 16.9683C16.8658 18.4078 16.3702 19.9445 16.1452 21.5785H12.2491C10.1785 21.5785 8.4109 22.339 6.9463 23.8602C5.4817 25.3813 4.7494 27.2171 4.7494 29.3677C4.7494 30.5442 4.9717 31.6344 5.4163 32.6384C5.8609 33.6423 6.4444 34.4664 7.1668 35.1108C7.8892 35.7551 8.6923 36.2571 9.5761 36.6166C10.4599 36.9762 11.3509 37.1563 12.2491 37.1569H19.7488V41.052H12.2491C10.2079 41.052 8.3257 40.5298 6.6025 39.4854C4.8793 38.4409 3.5146 37.0236 2.5084 35.2332C1.5022 33.4429 0.999401 31.488 1 29.3686C1.0006 27.2492 1.5034 25.2944 2.5084 23.504C3.5134 21.7137 4.8781 20.2963 6.6025 19.2519C8.3269 18.2075 10.2091 17.6852 12.2491 17.6852H13.2157C13.9873 15.4232 15.1495 13.4125 16.7023 11.6533C18.2551 9.89415 20.113 8.51228 22.276 7.50774C24.439 6.5032 26.7217 6.00125 29.1241 6.00187L29.125 6ZM25.3747 21.5785C25.8925 21.5785 26.3368 21.7713 26.7076 22.1571L32.3326 27.9992C32.6938 28.3744 32.8744 28.8308 32.8744 29.3686C32.8744 29.9263 32.6962 30.3903 32.3398 30.7605C31.9834 31.1306 31.5367 31.3157 30.9997 31.3157C30.4723 31.3157 30.028 31.1281 29.6668 30.753L27.2494 28.2273V41.0529C27.2494 41.5907 27.0664 42.0497 26.7004 42.4298C26.3344 42.8099 25.8925 43 25.3747 43C24.8569 43 24.415 42.8099 24.049 42.4298C23.683 42.0497 23.5 41.5907 23.5 41.0529V28.2273L21.0826 30.753C20.7214 31.1281 20.2771 31.3157 19.7497 31.3157C19.2319 31.3157 18.79 31.1256 18.424 30.7455C18.058 30.3654 17.875 29.9064 17.875 29.3686C17.875 28.8514 18.0556 28.3949 18.4168 27.9992L24.0418 22.1571C24.4132 21.7713 24.8575 21.5785 25.3747 21.5785Z" fill="#515151"/>
</svg>
