<svg width="85" height="99" viewBox="0 0 85 99" fill="none" xmlns="http://www.w3.org/2000/svg">
<path d="M43.2979 98.9964C43.2979 98.443 43.2979 98.1662 43.2979 97.8895C43.2979 91.477 43.2979 85.0663 43.2961 78.6539C43.2961 78.3631 43.3049 78.0706 43.2839 77.7798C43.193 76.4346 42.7126 75.9792 41.3586 75.9792C36.5628 75.9757 31.767 75.981 26.9695 75.9792C24.6144 75.9792 22.254 76.0773 19.9077 75.9442C13.1726 75.5624 7.82821 72.5795 3.88675 67.0761C1.30628 63.4696 0.228319 59.3745 0.123493 55.0148C0.0134256 50.5011 -0.0564584 45.9821 0.0605974 41.47C0.177653 36.9545 1.19621 32.6632 3.90772 28.8956C6.90749 24.7269 10.842 21.9665 15.8579 20.905C17.6592 20.5232 19.539 20.3971 21.3875 20.3725C26.4436 20.3025 31.5032 20.3498 36.561 20.3498C37.8172 20.3498 38.2889 19.9679 38.4007 18.6805C38.6331 15.9954 38.4776 13.4311 36.6711 11.1593C34.5973 8.55128 34.8803 5.78382 36.6886 3.15999C38.3431 0.756851 40.6929 -0.30109 43.6158 0.0737433C46.5929 0.455583 49.4372 3.3474 49.715 6.3198C49.8495 7.75432 49.3603 9.05573 48.665 10.3081C47.9923 11.5202 47.1817 12.727 46.8532 14.0424C46.4724 15.568 46.4671 17.2075 46.4601 18.7979C46.4549 20.038 46.9039 20.348 48.1391 20.348C53.459 20.3515 58.7772 20.3603 64.0971 20.3515C69.9639 20.341 75.0008 22.3676 79.1432 26.5433C82.4854 29.9133 84.4701 34.0032 84.7199 38.7324C84.9942 43.9345 85.0239 49.1541 84.989 54.365C84.9383 61.606 82.0503 67.5683 76.4666 72.1696C71.6673 76.1264 66.8348 80.0428 62.0024 83.9593C56.3348 88.5537 50.6514 93.1287 44.9716 97.7091C44.5016 98.0874 44.0159 98.4447 43.2996 98.9964H43.2979ZM42.0539 34.2239V34.2133C35.7172 34.2133 29.3805 34.1608 23.0455 34.2326C19.1337 34.2782 16.0763 36.1173 14.1981 39.5083C11.6788 44.0536 11.8728 48.9352 13.3403 53.7292C14.6716 58.0766 19.1442 61.1611 23.6133 61.1786C30.1806 61.2031 36.7497 61.2171 43.3171 61.2329C44.5156 61.2364 44.6711 61.387 44.6693 62.5921C44.6659 66.5839 44.6589 70.5774 44.6571 74.5692C44.6571 74.9178 44.6414 75.2733 44.6903 75.6167C44.8877 77.0004 45.7648 77.5451 47.0419 76.9689C47.8526 76.6028 48.6353 76.1123 49.3201 75.5448C55.4525 70.4618 61.5726 65.363 67.6665 60.2345C69.3576 58.8122 70.5981 57.0169 71.435 54.9605C72.913 51.3226 72.7977 47.5392 72.2561 43.7733C71.4786 38.3663 66.7527 34.2764 61.3262 34.2361C54.9021 34.1871 48.4798 34.2256 42.0557 34.2256L42.0539 34.2239Z" fill="black"/>
<path d="M35.3101 47.5691C35.4097 50.58 32.6877 54.2512 28.4614 54.0341C24.9934 53.8571 22.1055 50.827 22.2068 47.2608C22.3099 43.607 25.2188 40.7713 28.7777 40.8553C32.5741 40.9447 35.4009 43.8505 35.3101 47.5673V47.5691Z" fill="black"/>
<path d="M49.6905 47.4077C49.6922 43.6682 52.4212 40.8499 56.0377 40.8481C59.7957 40.8481 62.6086 43.6524 62.5998 47.392C62.5911 51.1438 59.7486 54.0304 56.0779 54.0111C52.3828 53.9918 49.6887 51.2069 49.6922 47.406L49.6905 47.4077Z" fill="black"/>
</svg>
