<svg width="227" height="58" viewBox="0 0 227 58" fill="none" xmlns="http://www.w3.org/2000/svg">
<path d="M24.9597 57.068C24.9597 56.749 24.9597 56.5894 24.9597 56.4299C24.9597 52.7333 24.9597 49.0378 24.9587 45.3412C24.9587 45.1736 24.9638 45.005 24.9517 44.8374C24.8993 44.0619 24.6223 43.7994 23.8418 43.7994C21.0772 43.7974 18.3126 43.8004 15.547 43.7994C14.1893 43.7994 12.8287 43.8559 11.4761 43.7792C7.59355 43.5591 4.51269 41.8395 2.24058 38.667C0.753026 36.588 0.131618 34.2273 0.0711895 31.7142C0.00773941 29.1121 -0.0325463 26.5071 0.0349323 23.906C0.102411 21.303 0.689576 18.8292 2.25266 16.6573C3.98193 14.2542 6.25002 12.6629 9.14153 12.051C10.1799 11.8309 11.2636 11.7582 12.3291 11.7441C15.2438 11.7037 18.1605 11.7309 21.0762 11.7309C21.8003 11.7309 22.0722 11.5108 22.1367 10.7687C22.2707 9.22079 22.181 7.74258 21.1396 6.43298C19.9442 4.92952 20.1073 3.33417 21.1497 1.82162C22.1035 0.436298 23.4581 -0.173568 25.143 0.0425105C26.8592 0.262628 28.4988 1.92966 28.659 3.64314C28.7365 4.4701 28.4545 5.22031 28.0537 5.94226C27.6659 6.64098 27.1986 7.33667 27.0093 8.09496C26.7897 8.97442 26.7867 9.91951 26.7827 10.8363C26.7796 11.5512 27.0385 11.7299 27.7505 11.7299C30.8173 11.7319 33.883 11.737 36.9498 11.7319C40.3318 11.7259 43.2354 12.8941 45.6233 15.3013C47.55 17.244 48.6941 19.6016 48.8381 22.3279C48.9962 25.3267 49.0133 28.3357 48.9932 31.3395C48.964 35.5137 47.2992 38.9508 44.0804 41.6033C41.3137 43.8842 38.528 46.1419 35.7422 48.3996C32.475 51.0481 29.1988 53.6855 25.9246 56.3259C25.6537 56.544 25.3737 56.75 24.9607 57.068H24.9597ZM24.2426 19.7289V19.7228C20.5897 19.7228 16.9368 19.6925 13.2849 19.7339C11.0299 19.7602 9.26742 20.8204 8.18474 22.7752C6.73244 25.3954 6.84423 28.2094 7.69023 30.973C8.45768 33.4791 11.036 35.2572 13.6122 35.2673C17.3981 35.2815 21.185 35.2895 24.9708 35.2986C25.6617 35.3006 25.7513 35.3875 25.7503 36.0822C25.7483 38.3833 25.7443 40.6854 25.7433 42.9866C25.7433 43.1875 25.7342 43.3925 25.7624 43.5904C25.8762 44.3881 26.3818 44.7021 27.118 44.3699C27.5854 44.1589 28.0366 43.8761 28.4314 43.549C31.9664 40.6188 35.4945 37.6795 39.0074 34.7231C39.9823 33.9032 40.6974 32.8683 41.1798 31.6828C42.0318 29.5857 41.9654 27.4047 41.6531 25.2338C41.205 22.1168 38.4806 19.7592 35.3524 19.7359C31.6492 19.7077 27.9469 19.7299 24.2436 19.7299L24.2426 19.7289Z" fill="black"/>
<path d="M20.355 27.4221C20.4124 29.1578 18.8433 31.2741 16.407 31.1489C14.4078 31.0469 12.743 29.3001 12.8014 27.2443C12.8609 25.1381 14.5378 23.5034 16.5893 23.5518C18.7778 23.6033 20.4074 25.2784 20.355 27.421V27.4221Z" fill="black"/>
<path d="M28.6448 27.3292C28.6458 25.1735 30.219 23.5489 32.3038 23.5479C34.4702 23.5479 36.0917 25.1644 36.0866 27.3201C36.0816 29.4829 34.443 31.1469 32.327 31.1358C30.1968 31.1247 28.6438 29.5193 28.6458 27.3282L28.6448 27.3292Z" fill="black"/>
<path d="M96.1404 45.3564V20.8756C100.656 20.9823 105.142 20.4415 109.532 21.5037C115.288 22.8981 118.576 27.4038 118.487 33.5246C118.408 39.044 114.62 43.7753 108.995 44.7938C106 45.337 102.877 45.2085 99.8106 45.3467C98.6275 45.4001 97.4394 45.3564 96.1379 45.3564H96.1404ZM101.543 25.3692V40.71C103.069 40.71 104.506 40.8119 105.926 40.6906C109.505 40.3802 111.756 38.7676 112.448 35.7799C112.793 34.2861 112.855 32.6419 112.626 31.1263C112.15 27.9858 110.2 26.1816 107.021 25.7402C105.248 25.4953 103.441 25.4905 101.546 25.3692H101.543Z" fill="black"/>
<path d="M158 31.3252V29.1184H162.885C162.908 29.5209 162.947 29.9089 162.947 30.2994C162.947 35.147 162.952 39.9971 162.937 44.8448C162.925 49.3238 160.536 52.1005 155.986 52.8038C153.228 53.2306 150.509 52.9517 147.867 51.9962C147.12 51.7271 146.72 51.3827 146.821 50.5242C146.915 49.7312 146.841 48.9164 146.841 48.0943C148.362 48.4387 149.804 48.8849 151.278 49.0595C152.437 49.1977 153.667 49.1468 154.81 48.9164C157.105 48.4581 158.163 47.0006 158.145 44.6532C158.143 44.2943 158.145 43.9354 158.145 43.431C157.84 43.6347 157.618 43.7705 157.408 43.9208C154.611 45.9191 151.557 46.2368 148.443 44.9127C145.399 43.6177 144.199 41.0399 144.078 37.897C143.967 35.0258 144.625 32.4261 146.947 30.4812C150.137 27.8113 154.127 28.078 157.995 31.3179L158 31.3252ZM149.065 37.2617C149.079 39.6746 151.078 41.5079 153.652 41.4667C156.213 41.4255 158.143 39.6455 158.165 37.3005C158.187 34.8876 156.104 32.996 153.477 33.0445C150.891 33.093 149.05 34.8512 149.065 37.2641V37.2617Z" fill="black"/>
<path d="M85.0655 45.3537C83.3869 45.3537 81.9079 45.3998 80.4364 45.3222C80.0642 45.3028 79.554 44.9608 79.3863 44.6286C78.8367 43.5519 78.3757 42.4243 77.9542 41.2893C77.7077 40.6249 77.3479 40.3557 76.6059 40.3678C73.8156 40.4066 71.0229 40.3533 68.2326 40.4163C67.8382 40.426 67.2762 40.8116 67.0987 41.1705C66.5466 42.2909 66.1843 43.501 65.6568 44.6335C65.5113 44.9487 65.0553 45.3076 64.7275 45.3222C63.2165 45.3949 61.7006 45.3537 60.0096 45.3537C60.6111 43.9011 61.1558 42.5698 61.7129 41.2433C64.4021 34.8411 67.1086 28.4439 69.7658 22.0248C70.1257 21.1566 70.6014 20.9432 71.5454 20.8195C73.6948 20.5407 74.6562 21.3627 75.4671 23.3101C78.3733 30.2821 81.5062 37.1595 84.5528 44.0733C84.7106 44.4346 84.8461 44.8032 85.0655 45.3513V45.3537ZM75.7925 36.3471C74.6734 33.5486 73.6209 30.9174 72.4969 28.1068C71.3409 30.9417 70.2563 33.5995 69.1348 36.3471H75.7925Z" fill="black"/>
<path d="M226.944 38.9156H214.488C214.841 40.7101 216.093 41.9032 218.156 41.9153C220.217 41.925 222.28 41.5322 224.338 41.2897C224.73 41.2436 225.107 41.0738 225.689 40.9041C225.689 42.0463 225.736 43.0745 225.657 44.0955C225.637 44.3574 225.27 44.7357 224.989 44.8157C221.045 45.9676 217.091 46.3774 213.271 44.4301C211.274 43.4116 209.987 41.7407 209.598 39.5436C208.964 35.9546 209.492 32.6808 212.691 30.3309C215.563 28.2211 219.968 28.0295 223.044 29.8386C225.359 31.2015 226.554 33.2943 226.921 35.8503C227.057 36.7912 226.944 37.7685 226.944 38.9156ZM214.385 35.4526H222.006C221.535 33.3428 220.328 32.3364 218.331 32.3C216.27 32.2637 214.868 33.3574 214.385 35.4526Z" fill="black"/>
<path d="M178.151 29.0889H183.006V45.259H178.488C178.456 44.7425 178.424 44.2333 178.382 43.5761C178.074 43.7943 177.83 43.9519 177.603 44.1314C175.328 45.9478 171.264 46.2824 168.779 44.8128C167.189 43.8743 166.235 42.3975 166.174 40.6418C166.043 36.8223 166.134 32.9932 166.134 29.0961H171.044C171.044 31.7224 171.044 34.3342 171.044 36.946C171.044 37.3898 171.042 37.8336 171.044 38.2773C171.044 40.7557 172.003 41.927 174.074 41.9852C176.327 42.0483 178.094 40.4478 178.138 38.1997C178.188 35.6171 178.153 33.032 178.155 30.4469C178.155 30.0128 178.155 29.5787 178.155 29.0864L178.151 29.0889Z" fill="black"/>
<path d="M206.98 33.6192C205.486 33.1899 204.106 32.6904 202.679 32.4188C201.87 32.266 200.961 32.3727 200.155 32.5788C199.748 32.6831 199.221 33.2627 199.208 33.641C199.198 33.9854 199.743 34.5043 200.157 34.6789C201.89 35.4016 203.694 35.9618 205.42 36.699C207.222 37.4677 208.052 38.8985 208.006 40.8507C207.956 42.9362 206.997 44.4349 204.974 45.0799C201.617 46.1494 198.252 45.9093 194.959 44.7647C194.594 44.6386 194.217 44.0396 194.17 43.6273C194.057 42.5943 194.133 41.5418 194.133 40.6567C196.11 41.1174 198.033 41.6194 199.982 41.988C200.635 42.1117 201.392 42.005 202.036 41.7988C202.474 41.6582 203.054 41.1902 203.093 40.8167C203.13 40.4723 202.612 39.9097 202.203 39.7109C201.254 39.2477 200.224 38.9494 199.228 38.576C198.387 38.2583 197.54 37.9552 196.716 37.5987C195.107 36.9003 194.197 35.7023 194.18 33.9344C194.16 32.1011 194.828 30.5709 196.534 29.7173C199.79 28.0876 203.128 28.466 206.448 29.5524C206.677 29.6276 206.943 29.9937 206.956 30.2362C207.01 31.3881 206.98 32.5449 206.98 33.6216V33.6192Z" fill="black"/>
<path d="M141.687 33.5777C140.213 33.1606 138.828 32.661 137.398 32.4015C136.592 32.256 135.685 32.404 134.879 32.6198C134.524 32.7144 134.093 33.2988 134.085 33.6674C134.078 33.9997 134.536 34.4992 134.906 34.6544C136.641 35.3771 138.453 35.9227 140.166 36.6866C142.173 37.5839 142.924 39.0268 142.754 41.1851C142.577 43.4209 141.482 44.7329 139.096 45.3028C135.993 46.0448 132.914 45.8314 129.873 44.8687C129.079 44.6165 128.771 44.1945 128.835 43.3676C128.909 42.4049 128.852 41.4324 128.852 40.4527C130.371 40.9232 131.837 41.51 133.363 41.8083C134.457 42.0217 135.646 41.9489 136.762 41.7986C137.201 41.7404 137.763 41.1802 137.886 40.7437C137.96 40.4818 137.361 39.8804 136.94 39.6767C136.028 39.2305 135.034 38.9419 134.075 38.5878C133.346 38.3187 132.609 38.0713 131.891 37.773C130.075 37.0213 128.936 35.7966 128.973 33.7256C129.01 31.7468 129.924 30.2772 131.726 29.4939C134.867 28.1286 138.056 28.4948 141.204 29.5497C141.421 29.6224 141.655 30.0032 141.667 30.2481C141.717 31.3685 141.69 32.4913 141.69 33.5728L141.687 33.5777Z" fill="black"/>
<path d="M87.242 45.2933V20.958H92.3198V45.2958H87.242V45.2933Z" fill="black"/>
<path d="M126.269 29.106V45.2762H121.302V29.106H126.269Z" fill="black"/>
<path d="M186.62 29.0527H191.424V45.2593H186.62V29.0527Z" fill="black"/>
<path d="M189.346 20.3081C190.312 21.2151 191.574 22.4058 192.869 23.6207C191.762 24.7193 190.759 25.779 189.669 26.7442C189.474 26.9164 188.806 26.8363 188.56 26.635C187.463 25.7329 186.443 24.7411 185.267 23.6668C186.763 22.4349 188.064 21.3654 189.349 20.3081H189.346Z" fill="black"/>
<path d="M120.122 23.5818C121.428 22.3208 122.621 21.1664 123.829 20C124.921 21.0937 126.106 22.282 127.474 23.6497C126.262 24.7434 125 25.8807 123.787 26.9744C122.582 25.8565 121.339 24.7094 120.124 23.5818H120.122Z" fill="black"/>
</svg>
