<svg width="170" height="198" viewBox="0 0 170 198" fill="none" xmlns="http://www.w3.org/2000/svg">
<path d="M86.5989 198C86.5989 196.893 86.5989 196.339 86.5989 195.786C86.5989 182.961 86.5989 170.139 86.5954 157.313C86.5954 156.732 86.6128 156.147 86.5709 155.565C86.3892 152.875 85.4283 151.964 82.7201 151.964C73.1282 151.957 63.5363 151.967 53.9409 151.964C49.2305 151.964 44.5097 152.16 39.8168 151.894C26.3461 151.13 15.657 145.164 7.77378 134.157C2.61266 126.944 0.456655 118.753 0.246995 110.034C0.0268522 101.006 -0.112921 91.9674 0.121199 82.9431C0.355319 73.9117 2.39251 65.3288 7.81571 57.7933C13.8155 49.4556 21.6847 43.9345 31.7169 41.8115C35.3196 41.0478 39.0795 40.7956 42.7765 40.7465C52.8891 40.6064 63.0086 40.701 73.1247 40.701C75.6371 40.701 76.5806 39.9373 76.8043 37.3624C77.269 31.9919 76.958 26.8632 73.3449 22.3195C69.1971 17.1032 69.7632 11.5681 73.3798 6.3202C76.6889 1.51376 81.3888 -0.602202 87.2348 0.147492C93.1892 0.911198 98.8779 6.69505 99.4335 12.64C99.7026 15.5092 98.7242 18.1121 97.3334 20.6169C95.9881 23.0412 94.3668 25.4549 93.7098 28.0858C92.9481 31.1372 92.9376 34.4162 92.9236 37.5971C92.9131 40.0774 93.8112 40.6975 96.2817 40.6975C106.922 40.7045 117.559 40.722 128.199 40.7045C139.933 40.6835 150.007 44.7367 158.292 53.0885C164.977 59.8287 168.946 68.0088 169.446 77.4675C169.995 87.8721 170.054 98.3118 169.984 108.734C169.883 123.216 164.107 135.141 152.939 144.344C143.34 152.258 133.674 160.091 124.009 167.925C112.674 177.114 101.306 186.264 89.9464 195.425C89.0065 196.182 88.035 196.896 86.6023 198H86.5989ZM84.1109 68.4502V68.4292C71.437 68.4292 58.763 68.3241 46.0926 68.4677C38.2688 68.5588 32.1537 72.2372 28.3973 79.0194C23.3585 88.1104 23.7464 97.8739 26.6816 107.462C29.3443 116.157 38.2898 122.326 47.2283 122.362C60.3634 122.411 73.5021 122.439 86.6373 122.47C89.0344 122.477 89.3454 122.778 89.3419 125.189C89.3349 133.173 89.3209 141.16 89.3174 149.144C89.3174 149.841 89.286 150.552 89.3838 151.239C89.7787 154.006 91.5329 155.096 94.0872 153.943C95.7086 153.211 97.274 152.23 98.6438 151.095C110.909 140.929 123.15 130.731 135.338 120.473C138.72 117.629 141.201 114.038 142.875 109.925C145.831 102.649 145.601 95.0818 144.517 87.5498C142.962 76.7353 133.51 68.5553 122.657 68.4747C109.808 68.3766 96.963 68.4537 84.1144 68.4537L84.1109 68.4502Z" fill="white"/>
<path d="M70.6228 95.141C70.822 101.163 65.3778 108.506 56.925 108.071C49.9888 107.718 44.2127 101.657 44.4153 94.5245C44.6215 87.2167 50.4396 81.545 57.5575 81.7131C65.1507 81.8918 70.8045 87.7037 70.6228 95.1375V95.141Z" fill="white"/>
<path d="M99.3843 94.8184C99.3878 87.3389 104.846 81.7022 112.079 81.6987C119.595 81.6987 125.221 87.3074 125.204 94.7868C125.186 102.291 119.501 108.064 112.16 108.026C104.769 107.987 99.3808 102.417 99.3878 94.8149L99.3843 94.8184Z" fill="white"/>
</svg>
