<?xml version="1.0" encoding="UTF-8"?>
<svg id="_图层_2" data-name="图层 2" xmlns="http://www.w3.org/2000/svg" width="902.81" height="219.48" viewBox="0 0 902.81 219.48">
  <g id="_图层_1-2" data-name="图层 1">
    <path d="M109.48,219.48v-42.21c-2.1-.1-3.71-.24-5.31-.25-16.5-.01-32.99.02-49.49-.01-30.38-.06-51.91-19.74-54.35-49.88-1.51-18.64,1.98-35.88,15.61-49.8,9.17-9.37,20.47-14.12,33.55-14.31,12.63-.18,25.26-.04,38.6-.04,0-4.86,0-9.3,0-13.73,0-2.33-.1-4.68.09-7,.48-5.83,4.23-9.63,9.43-9.75,5.07-.12,9.21,3.72,9.63,9.47.35,4.81.18,9.66.23,14.49.02,1.96,0,3.93,0,6.49,8.56,0,16.68-.19,24.78.05,7.96.24,16.15-.12,23.81,1.63,21.85,5.02,36.99,25.01,38.43,49.07,1.37,22.9-6.28,41.45-24.66,55.91-20.14,15.86-39.57,32.62-60.36,49.85ZM109.06,176.29c9.61-8,18.42-15.32,27.22-22.66,6.78-5.65,13.78-11.06,20.25-17.04,8.3-7.68,10.7-17.76,7.08-26.72-3.8-9.38-12.68-15.21-23.64-15.24-28.32-.06-56.64-.16-84.95.1-4.5.04-9.39,1.05-13.39,3.03-9.64,4.76-14.1,15.47-11.63,25.73,2.75,11.44,12.48,19.41,24.13,19.47,16.49.09,32.98,0,49.47,0,1.74,0,3.49,0,5.47,0v33.33Z" fill="#000" stroke-width="0"/>
    <path d="M371.97,177.01v-100.95c18.32.44,36.52-1.79,54.33,2.59,23.35,5.75,36.69,24.33,36.33,49.57-.32,22.76-15.69,42.27-38.51,46.47-12.15,2.24-24.82,1.71-37.26,2.28-4.8.22-9.62.04-14.9.04ZM393.89,94.59v63.26c6.19,0,12.02.42,17.78-.08,14.52-1.28,23.65-7.93,26.46-20.25,1.4-6.16,1.65-12.94.72-19.19-1.93-12.95-9.84-20.39-22.74-22.21-7.19-1.01-14.52-1.03-22.21-1.53Z" fill="#000" stroke-width="0"/>
    <path d="M622.93,119.15v-9.1h19.82c.09,1.66.25,3.26.25,4.87,0,19.99.02,39.99-.04,59.98-.05,18.47-9.74,29.92-28.2,32.82-11.19,1.76-22.22.61-32.94-3.33-3.03-1.11-4.65-2.53-4.24-6.07.38-3.27.08-6.63.08-10.02,6.17,1.42,12.02,3.26,18,3.98,4.7.57,9.69.36,14.33-.59,9.31-1.89,13.6-7.9,13.53-17.58-.01-1.48,0-2.96,0-5.04-1.24.84-2.14,1.4-2.99,2.02-11.35,8.24-23.74,9.55-36.37,4.09-12.35-5.34-17.22-15.97-17.71-28.93-.45-11.84,2.22-22.56,11.64-30.58,12.94-11.01,29.13-9.91,44.82,3.45ZM586.68,143.63c.06,9.95,8.17,17.51,18.61,17.34,10.39-.17,18.22-7.51,18.31-17.18.09-9.95-8.36-17.75-19.02-17.55-10.49.2-17.96,7.45-17.9,17.4Z" fill="#000" stroke-width="0"/>
    <path d="M327.04,177.01c-6.81,0-12.81.19-18.78-.13-1.51-.08-3.58-1.49-4.26-2.86-2.23-4.44-4.1-9.09-5.81-13.77-1-2.74-2.46-3.85-5.47-3.8-11.32.16-22.65-.06-33.97.2-1.6.04-3.88,1.63-4.6,3.11-2.24,4.62-3.71,9.61-5.85,14.28-.59,1.3-2.44,2.78-3.77,2.84-6.13.3-12.28.13-19.14.13,2.44-5.99,4.65-11.48,6.91-16.95,10.91-26.41,21.89-52.79,32.67-79.25,1.46-3.58,3.39-4.46,7.22-4.97,8.72-1.15,12.62,2.24,15.91,10.27,11.79,28.75,24.5,57.11,36.86,85.62.64,1.49,1.19,3.01,2.08,5.27ZM289.42,139.86c-4.54-11.54-8.81-22.39-13.37-33.98-4.69,11.69-9.09,22.65-13.64,33.98h27.01Z" fill="#000" stroke-width="0"/>
    <path d="M902.63,150.45h-50.53c1.43,7.4,6.51,12.32,14.88,12.37,8.36.04,16.73-1.58,25.08-2.58,1.59-.19,3.12-.89,5.48-1.59,0,4.71.19,8.95-.13,13.16-.08,1.08-1.57,2.64-2.71,2.97-16,4.75-32.04,6.44-47.54-1.59-8.1-4.2-13.32-11.09-14.9-20.15-2.57-14.8-.43-28.3,12.55-37.99,11.65-8.7,29.52-9.49,42-2.03,9.39,5.62,14.24,14.25,15.73,24.79.55,3.88.09,7.91.09,12.64ZM851.67,136.17h30.92c-1.91-8.7-6.81-12.85-14.91-13-8.36-.15-14.05,4.36-16.01,13Z" fill="#000" stroke-width="0"/>
    <path d="M704.68,109.93h19.7v66.68h-18.33c-.13-2.13-.26-4.23-.43-6.94-1.25.9-2.24,1.55-3.16,2.29-9.23,7.49-25.72,8.87-35.8,2.81-6.45-3.87-10.32-9.96-10.57-17.2-.53-15.75-.16-31.54-.16-47.61h19.92c0,10.83,0,21.6,0,32.37,0,1.83-.01,3.66,0,5.49,0,10.22,3.89,15.05,12.29,15.29,9.14.26,16.31-6.34,16.49-15.61.2-10.65.06-21.31.07-31.97,0-1.79,0-3.58,0-5.61Z" fill="#000" stroke-width="0"/>
    <path d="M821.64,128.61c-6.06-1.77-11.66-3.83-17.45-4.95-3.28-.63-6.97-.19-10.24.66-1.65.43-3.79,2.82-3.84,4.38-.04,1.42,2.17,3.56,3.85,4.28,7.03,2.98,14.35,5.29,21.35,8.33,7.31,3.17,10.68,9.07,10.49,17.12-.2,8.6-4.09,14.78-12.3,17.44-13.62,4.41-27.27,3.42-40.63-1.3-1.48-.52-3.01-2.99-3.2-4.69-.46-4.26-.15-8.6-.15-12.25,8.02,1.9,15.82,3.97,23.73,5.49,2.65.51,5.72.07,8.33-.78,1.78-.58,4.13-2.51,4.29-4.05.15-1.42-1.95-3.74-3.61-4.56-3.85-1.91-8.03-3.14-12.07-4.68-3.41-1.31-6.85-2.56-10.19-4.03-6.53-2.88-10.22-7.82-10.29-15.11-.08-7.56,2.63-13.87,9.55-17.39,13.21-6.72,26.75-5.16,40.22-.68.93.31,2.01,1.82,2.06,2.82.22,4.75.1,9.52.1,13.96Z" fill="#000" stroke-width="0"/>
    <path d="M556.75,128.44c-5.98-1.72-11.6-3.78-17.4-4.85-3.27-.6-6.95.01-10.22.9-1.44.39-3.19,2.8-3.22,4.32-.03,1.37,1.83,3.43,3.33,4.07,7.04,2.98,14.39,5.23,21.34,8.38,8.14,3.7,11.19,9.65,10.5,18.55-.72,9.22-5.16,14.63-14.84,16.98-12.59,3.06-25.08,2.18-37.42-1.79-3.22-1.04-4.47-2.78-4.21-6.19.3-3.97.07-7.98.07-12.02,6.16,1.94,12.11,4.36,18.3,5.59,4.44.88,9.26.58,13.79-.04,1.78-.24,4.06-2.55,4.56-4.35.3-1.08-2.13-3.56-3.84-4.4-3.7-1.84-7.73-3.03-11.62-4.49-2.96-1.11-5.95-2.13-8.86-3.36-7.37-3.1-11.99-8.15-11.84-16.69.15-8.16,3.86-14.22,11.17-17.45,12.74-5.63,25.68-4.12,38.45.23.88.3,1.83,1.87,1.88,2.88.2,4.62.09,9.25.09,13.71Z" fill="#000" stroke-width="0"/>
    <path d="M335.87,176.76v-100.36h20.6v100.36h-20.6Z" fill="#000" stroke-width="0"/>
    <path d="M494.2,110v66.68h-20.15v-66.68h20.15Z" fill="#000" stroke-width="0"/>
    <path d="M739.04,109.78h19.49v66.83h-19.49v-66.83Z" fill="#000" stroke-width="0"/>
    <path d="M750.1,73.72c3.92,3.74,9.04,8.65,14.29,13.66-4.49,4.53-8.56,8.9-12.98,12.88-.79.71-3.5.38-4.5-.45-4.45-3.72-8.59-7.81-13.36-12.24,6.07-5.08,11.35-9.49,16.56-13.85Z" fill="#000" stroke-width="0"/>
    <path d="M469.26,87.23c5.3-5.2,10.14-9.96,15.04-14.77,4.43,4.51,9.24,9.41,14.79,15.05-4.92,4.51-10.04,9.2-14.96,13.71-4.89-4.61-9.93-9.34-14.86-13.99Z" fill="#000" stroke-width="0"/>
    <path d="M108.82,11.72c-.07,6.97-5.24,12.29-11.8,12.16-5.9-.12-12.29-6.75-12.08-12.53C85.17,5.23,90.97-.1,97.3,0c6.84.11,11.59,4.94,11.52,11.72Z" fill="#000" stroke-width="0"/>
    <path d="M118.59,118.32c-.07-7.74,5.42-13.38,13.01-13.37,7.39.01,12.96,5.49,13.08,12.86.13,7.69-5.4,13.35-13.05,13.35-7.43,0-12.98-5.47-13.05-12.84Z" fill="#000" stroke-width="0"/>
    <path d="M75.78,118.08c.01,7.4-5.47,12.98-12.83,13.06-7.78.09-13.25-5.31-13.26-13.07,0-7.41,5.47-13.02,12.8-13.11,7.6-.1,13.28,5.51,13.29,13.13Z" fill="#000" stroke-width="0"/>
  </g>
</svg>