<?xml version="1.0" encoding="UTF-8"?>
<svg id="_图层_2" data-name="图层 2" xmlns="http://www.w3.org/2000/svg" width="194.65" height="219.48" viewBox="0 0 194.65 219.48">
  <g id="_图层_1-2" data-name="图层 1">
    <path d="M109.48,219.48v-42.21c-2.1-.1-3.71-.24-5.31-.25-16.5-.01-32.99.02-49.49-.01-30.38-.06-51.91-19.74-54.35-49.88-1.51-18.64,1.98-35.88,15.61-49.8,9.17-9.37,20.47-14.12,33.55-14.31,12.63-.18,25.26-.04,38.6-.04,0-4.86,0-9.3,0-13.73,0-2.33-.1-4.68.09-7,.48-5.83,4.23-9.63,9.43-9.75,5.07-.12,9.21,3.72,9.63,9.47.35,4.81.18,9.66.23,14.49.02,1.96,0,3.93,0,6.49,8.56,0,16.68-.19,24.78.05,7.96.24,16.15-.12,23.81,1.63,21.85,5.02,36.99,25.01,38.43,49.07,1.37,22.9-6.28,41.45-24.66,55.91-20.14,15.86-39.57,32.62-60.36,49.85ZM109.06,176.29c9.61-8,18.42-15.32,27.22-22.66,6.78-5.65,13.78-11.06,20.25-17.04,8.3-7.68,10.7-17.76,7.08-26.72-3.8-9.38-12.68-15.21-23.64-15.24-28.32-.06-56.64-.16-84.95.1-4.5.04-9.39,1.05-13.39,3.03-9.64,4.76-14.1,15.47-11.63,25.73,2.75,11.44,12.48,19.41,24.13,19.47,16.49.09,32.98,0,49.47,0,1.74,0,3.49,0,5.47,0v33.33Z" fill="#000" stroke-width="0"/>
    <path d="M108.82,11.72c-.07,6.97-5.24,12.29-11.8,12.16-5.9-.12-12.29-6.75-12.08-12.53C85.17,5.23,90.97-.1,97.3,0c6.84.11,11.59,4.94,11.52,11.72Z" fill="#000" stroke-width="0"/>
    <path d="M118.59,118.32c-.07-7.74,5.42-13.38,13.01-13.37,7.39.01,12.96,5.49,13.08,12.86.13,7.69-5.4,13.35-13.05,13.35-7.43,0-12.98-5.47-13.05-12.84Z" fill="#000" stroke-width="0"/>
    <path d="M75.78,118.08c.01,7.4-5.47,12.98-12.83,13.06-7.78.09-13.25-5.31-13.26-13.07,0-7.41,5.47-13.02,12.8-13.11,7.6-.1,13.28,5.51,13.29,13.13Z" fill="#000" stroke-width="0"/>
  </g>
</svg>