<svg width="226" height="40" viewBox="0 0 226 40" fill="none" xmlns="http://www.w3.org/2000/svg">
<path d="M0 30.24L1.92 23.48V18.4L4.88 17.2L10.48 1.96H22.52L29.36 19.88L32.44 25.56V30.24H23.76L21.76 24.28H10.92L9.2 30.24H0ZM13.56 17.28H19.56L16.92 9.32H16.08L13.56 17.28Z" fill="black"/>
<path d="M34.8609 30.24V8.32L34.4609 4.32L34.8609 1.92H43.7009V30.24H34.8609Z" fill="black"/>
<path d="M58.8937 30.24V8.36L58.0938 4.36L58.8937 1.92H72.4538C74.3471 1.92 76.1738 2.10667 77.9338 2.48C79.7204 2.82667 81.3071 3.49333 82.6937 4.48C84.1071 5.46667 85.2271 6.88 86.0537 8.72C86.8804 10.56 87.2938 12.9467 87.2938 15.88C87.2938 18.8133 86.8671 21.2267 86.0137 23.12C85.1871 24.9867 84.0671 26.44 82.6537 27.48C81.2404 28.52 79.6538 29.24 77.8938 29.64C76.1338 30.04 74.3204 30.24 72.4538 30.24H58.8937ZM67.7738 22.64H70.8138C72.3871 22.64 73.7071 22.4667 74.7738 22.12C75.8671 21.7733 76.6938 21.12 77.2538 20.16C77.8138 19.1733 78.0938 17.7467 78.0938 15.88C78.0938 13.9867 77.8004 12.6 77.2138 11.72C76.6538 10.8133 75.8271 10.2267 74.7337 9.96C73.6671 9.66667 72.3604 9.52 70.8138 9.52H67.7738V22.64Z" fill="black"/>
<path d="M95.4169 10.2L89.4969 5.08L95.4169 0L101.337 5.08L95.4169 10.2ZM90.9769 30.24V17L90.1369 13.8L90.9369 11.36H99.7769V30.24H90.9769Z" fill="black"/>
<path d="M111.919 30.64C109.652 30.64 107.799 30.4533 106.359 30.08C104.919 29.68 103.759 29.2533 102.879 28.8V22.04C103.999 22.7067 105.292 23.24 106.759 23.64C108.225 24.04 109.545 24.24 110.719 24.24C111.145 24.24 111.439 24.1867 111.599 24.08C111.759 23.9733 111.839 23.8133 111.839 23.6C111.839 23.3867 111.572 23.16 111.039 22.92C110.532 22.6533 109.652 22.3333 108.399 21.96C107.412 21.64 106.465 21.2933 105.559 20.92C104.652 20.5467 103.919 20.0533 103.359 19.44C102.799 18.8267 102.519 18.0133 102.519 17C102.519 15.4533 102.905 14.24 103.679 13.36C104.479 12.48 105.572 11.8667 106.959 11.52C108.372 11.1467 109.972 10.96 111.759 10.96C112.772 10.96 113.785 11.0133 114.799 11.12C115.839 11.2267 116.545 11.3067 116.919 11.36L120.639 13.36L118.839 18.84L112.599 17.32C111.745 17.32 111.319 17.52 111.319 17.92C111.319 18.3733 111.932 18.76 113.159 19.08C114.412 19.4267 115.639 19.8 116.839 20.2C118.039 20.6 119.025 21.1467 119.799 21.84C120.572 22.5067 120.959 23.44 120.959 24.64C120.959 26.6667 120.159 28.1733 118.559 29.16C116.959 30.1467 114.745 30.64 111.919 30.64Z" fill="black"/>
<path d="M133.018 39.96C132.591 39.96 132.031 39.9467 131.338 39.92C130.671 39.92 130.018 39.8933 129.378 39.84C128.738 39.8133 128.231 39.7867 127.858 39.76L122.978 37.4L124.978 31L132.058 33.04C133.498 33.04 134.471 32.7467 134.978 32.16C135.511 31.6 135.778 30.8133 135.778 29.8V29.04L135.378 28.84C135.005 29.2133 134.485 29.6 133.818 30C133.178 30.3733 132.098 30.56 130.578 30.56C129.325 30.56 128.111 30.2533 126.938 29.64C125.765 29 124.805 27.9867 124.058 26.6C123.338 25.2133 122.978 23.4133 122.978 21.2C122.978 18.72 123.351 16.7333 124.098 15.24C124.845 13.72 125.791 12.6133 126.938 11.92C128.111 11.2267 129.325 10.88 130.578 10.88C131.671 10.88 132.605 11.08 133.378 11.48C134.151 11.88 134.685 12.2667 134.978 12.64V11.32H143.818L144.218 13.72L143.778 16.12L143.818 30.2C143.818 32.4933 143.365 34.36 142.458 35.8C141.578 37.24 140.325 38.2933 138.698 38.96C137.098 39.6267 135.205 39.96 133.018 39.96ZM134.378 24C134.485 24 134.578 24 134.658 24C134.765 24 134.871 23.9867 134.978 23.96V18.08C134.925 18 134.805 17.92 134.618 17.84C134.458 17.76 134.231 17.72 133.938 17.72C133.405 17.72 132.911 17.92 132.458 18.32C132.005 18.72 131.778 19.5333 131.778 20.76C131.778 21.9067 132.045 22.7333 132.578 23.24C133.111 23.72 133.711 23.9733 134.378 24Z" fill="black"/>
<path d="M153.411 30.64C151.171 30.64 149.611 29.96 148.731 28.6C147.851 27.2133 147.411 25.3067 147.411 22.88V11.32H156.251V21.84C156.251 22.2933 156.318 22.72 156.451 23.12C156.611 23.52 156.904 23.72 157.331 23.72C158.051 23.72 158.491 23.4133 158.651 22.8C158.838 22.1867 158.931 21.2933 158.931 20.12V11.32H167.811V23.8L168.651 27.8L167.811 30.24H159.371V28.28L158.971 28.08C158.464 28.5867 157.758 29.1467 156.851 29.76C155.971 30.3467 154.824 30.64 153.411 30.64Z" fill="black"/>
<path d="M176.354 10.2L170.434 5.08L176.354 0L182.274 5.08L176.354 10.2ZM171.914 30.24V17L171.074 13.8L171.874 11.36H180.714V30.24H171.914Z" fill="black"/>
<path d="M192.856 30.64C190.59 30.64 188.736 30.4533 187.296 30.08C185.856 29.68 184.696 29.2533 183.816 28.8V22.04C184.936 22.7067 186.23 23.24 187.696 23.64C189.163 24.04 190.483 24.24 191.656 24.24C192.083 24.24 192.376 24.1867 192.536 24.08C192.696 23.9733 192.776 23.8133 192.776 23.6C192.776 23.3867 192.51 23.16 191.976 22.92C191.47 22.6533 190.59 22.3333 189.336 21.96C188.35 21.64 187.403 21.2933 186.496 20.92C185.59 20.5467 184.856 20.0533 184.296 19.44C183.736 18.8267 183.456 18.0133 183.456 17C183.456 15.4533 183.843 14.24 184.616 13.36C185.416 12.48 186.51 11.8667 187.896 11.52C189.31 11.1467 190.91 10.96 192.696 10.96C193.71 10.96 194.723 11.0133 195.736 11.12C196.776 11.2267 197.483 11.3067 197.856 11.36L201.576 13.36L199.776 18.84L193.536 17.32C192.683 17.32 192.256 17.52 192.256 17.92C192.256 18.3733 192.87 18.76 194.096 19.08C195.35 19.4267 196.576 19.8 197.776 20.2C198.976 20.6 199.963 21.1467 200.736 21.84C201.51 22.5067 201.896 23.44 201.896 24.64C201.896 26.6667 201.096 28.1733 199.496 29.16C197.896 30.1467 195.683 30.64 192.856 30.64Z" fill="black"/>
<path d="M214.916 30.64C212.862 30.64 210.996 30.3467 209.316 29.76C207.662 29.1467 206.342 28.1333 205.356 26.72C204.396 25.28 203.916 23.3067 203.916 20.8C203.916 19.04 204.209 17.5333 204.796 16.28C205.409 15.0267 206.222 14.0133 207.236 13.24C208.249 12.44 209.382 11.8667 210.636 11.52C211.889 11.1467 213.182 10.96 214.516 10.96C216.196 10.96 217.596 11.0667 218.716 11.28C219.862 11.4933 220.782 11.7333 221.476 12C222.169 12.2667 222.702 12.5067 223.076 12.72L225.076 19.08L224.276 21.56H212.676C212.782 22.3067 213.169 22.9467 213.836 23.48C214.502 23.9867 215.662 24.24 217.316 24.24C218.889 24.24 220.196 24.0667 221.236 23.72C222.276 23.3733 223.022 23.1067 223.476 22.92V29.08C222.942 29.3733 222.209 29.64 221.276 29.88C220.342 30.12 219.316 30.3067 218.196 30.44C217.102 30.5733 216.009 30.64 214.916 30.64ZM212.556 18.96L216.636 18.2L216.276 16.92C215.902 16.7067 215.449 16.6 214.916 16.6C214.036 16.6 213.409 16.84 213.036 17.32C212.689 17.8 212.529 18.3467 212.556 18.96Z" fill="black"/>
</svg>
